                                                                        S      1
,,,7Hbattery,22HAutoCAD 2022 - English,62HAutodesk Translation FrameworkG      1
 DWG producer (atf_dwg_producer),32,38,7,99,15,,1.,2,2HMM,1,0.08,15H2022G      2
0226.204956,0.01,10000.,,7Hunknown,11,0,15H20220226.190018;             G      3
     186       1                       0                        00000000D      1
     186             -73       1       0                               0D      2
     514       2                                                00010000D      3
     514                       1       1                               0D      4
     510       3                                                00010000D      5
     510             -73       1       1                               0D      6
     510       4                                                00010000D      7
     510             -73       1       1                               0D      8
     510       5                                                00010000D      9
     510             -73       1       1                               0D     10
     510       6                                                00010000D     11
     510             -73       1       1                               0D     12
     510       7                                                00010000D     13
     510             -73       1       1                               0D     14
     510       8                                                00010000D     15
     510             -73       1       1                               0D     16
     508       9                                                00010000D     17
     508                       1       1                               0D     18
     508      10                                                00010000D     19
     508                       1       1                               0D     20
     508      11                                                00010000D     21
     508                       1       1                               0D     22
     508      12                                                00010000D     23
     508                       1       1                               0D     24
     508      13                                                00010000D     25
     508                       1       1                               0D     26
     508      14                                                00010000D     27
     508                       1       1                               0D     28
     126      15                                                00010000D     29
     126       0               3       0                               0D     30
     126      18                                                00010000D     31
     126       0               3       0                               0D     32
     126      21                                                00010000D     33
     126       0               3       0                               0D     34
     126      24                                                00010000D     35
     126       0               3       0                               0D     36
     126      27                                                00010000D     37
     126       0               3       0                               0D     38
     126      30                                                00010000D     39
     126       0               3       0                               0D     40
     126      33                                                00010000D     41
     126       0               3       0                               0D     42
     126      36                                                00010000D     43
     126       0               3       0                               0D     44
     126      39                                                00010000D     45
     126       0               3       0                               0D     46
     126      42                                                00010000D     47
     126       0               3       0                               0D     48
     126      45                                                00010000D     49
     126       0               3       0                               0D     50
     126      48                                                00010000D     51
     126       0               3       0                               0D     52
     128      51                                                00010000D     53
     128       0     -73       5       0                               0D     54
     128      56                                                00010000D     55
     128       0     -73       7       0                               0D     56
     128      63                                                00010000D     57
     128       0     -73       6       0                               0D     58
     128      69                                                00010000D     59
     128       0     -73       6       0                               0D     60
     128      75                                                00010000D     61
     128       0     -73       6       0                               0D     62
     128      81                                                00010000D     63
     128       0     -73       6       0                               0D     64
     502      87                                                00010000D     65
     502                       7       1                               0D     66
     504      94                                                00010001D     67
     504                       3       1                               0D     68
     406      97                                                00000000D     69
     406                       1      15                               0D     70
     406      98                       0                        00000000D     71
     406             -73       1       3                               0D     72
     314      99                                                00000200D     73
     314                       1       0                               0D     74
186,3,1,0,0,1,69;                                                      1P      1
514,6,5,1,7,1,9,1,11,1,13,1,15,1;                                      3P      2
510,53,1,1,17;                                                         5P      3
510,55,1,1,19;                                                         7P      4
510,57,1,1,21;                                                         9P      5
510,59,1,1,23;                                                        11P      6
510,61,1,1,25;                                                        13P      7
510,63,1,1,27;                                                        15P      8
508,4,0,67,1,0,0,0,67,2,0,0,0,67,3,0,0,0,67,4,0,0;                    17P      9
508,4,0,67,5,0,0,0,67,6,0,0,0,67,7,0,0,0,67,8,0,0;                    19P     10
508,4,0,67,9,0,0,0,67,2,1,0,0,67,10,1,0,0,67,8,1,0;                   21P     11
508,4,0,67,11,0,0,0,67,3,1,0,0,67,9,1,0,0,67,7,1,0;                   23P     12
508,4,0,67,12,0,0,0,67,4,1,0,0,67,11,1,0,0,67,6,1,0;                  25P     13
508,4,0,67,10,0,0,0,67,1,1,0,0,67,12,1,0,0,67,5,1,0;                  27P     14
126,1,1,0,0,1,0,-16.6,-16.6,19.4,19.4,1.,1.,-17.9999926652904,        29P     15
-48.8591504398035,81.,18.0000073347096,-48.8591504398035,81.,         29P     16
-16.6,19.4,0.,0.,0.;                                                  29P     17
126,1,1,0,0,1,0,-12.6,-12.6,17.4,17.4,1.,1.,-17.9999926652904,        31P     18
-78.8591504398035,81.,-17.9999926652904,-48.8591504398035,81.,        31P     19
-12.6,17.4,0.,0.,0.;                                                  31P     20
126,1,1,0,0,1,0,-19.4,-19.4,16.6,16.6,1.,1.,18.0000073347095,         33P     21
-78.8591504398035,81.,-17.9999926652904,-78.8591504398035,81.,        33P     22
-19.4,16.6,0.,0.,0.;                                                  33P     23
126,1,1,0,0,1,0,-17.4,-17.4,12.6,12.6,1.,1.,18.0000073347096,         35P     24
-48.8591504398035,81.,18.0000073347095,-78.8591504398035,81.,         35P     25
-17.4,12.6,0.,0.,0.;                                                  35P     26
126,1,1,0,0,1,0,-19.4,-19.4,16.6,16.6,1.,1.,18.0000073347096,         37P     27
-48.8591504398035,9.00000000000004,-17.9999926652904,                 37P     28
-48.8591504398035,9.00000000000004,-19.4,16.6,0.,0.,0.;               37P     29
126,1,1,0,0,1,0,-12.6,-12.6,17.4,17.4,1.,1.,18.0000073347095,         39P     30
-78.8591504398035,9.00000000000004,18.0000073347096,                  39P     31
-48.8591504398035,9.00000000000004,-12.6,17.4,0.,0.,0.;               39P     32
126,1,1,0,0,1,0,-16.6,-16.6,19.4,19.4,1.,1.,-17.9999926652904,        41P     33
-78.8591504398035,9.00000000000004,18.0000073347095,                  41P     34
-78.8591504398035,9.00000000000004,-16.6,19.4,0.,0.,0.;               41P     35
126,1,1,0,0,1,0,-17.4,-17.4,12.6,12.6,1.,1.,-17.9999926652904,        43P     36
-48.8591504398035,9.00000000000004,-17.9999926652904,                 43P     37
-78.8591504398035,9.00000000000004,-17.4,12.6,0.,0.,0.;               43P     38
126,1,1,0,0,1,0,-36.,-36.,36.,36.,1.,1.,-17.9999926652904,            45P     39
-78.8591504398035,81.,-17.9999926652904,-78.8591504398035,            45P     40
9.00000000000004,-36.,36.,0.,0.,0.;                                   45P     41
126,1,1,0,0,1,0,-36.,-36.,36.,36.,1.,1.,-17.9999926652904,            47P     42
-48.8591504398035,81.,-17.9999926652904,-48.8591504398035,            47P     43
9.00000000000004,-36.,36.,0.,0.,0.;                                   47P     44
126,1,1,0,0,1,0,-36.,-36.,36.,36.,1.,1.,18.0000073347095,             49P     45
-78.8591504398035,81.,18.0000073347095,-78.8591504398035,             49P     46
9.00000000000004,-36.,36.,0.,0.,0.;                                   49P     47
126,1,1,0,0,1,0,-36.,-36.,36.,36.,1.,1.,18.0000073347096,             51P     48
-48.8591504398035,81.,18.0000073347096,-48.8591504398035,             51P     49
9.00000000000004,-36.,36.,0.,0.,0.;                                   51P     50
128,1,1,1,1,0,0,1,0,0,-12.601,-12.601,17.401,17.401,-16.601,          53P     51
-16.601,19.401,19.401,1.,1.,1.,1.,-18.0009926652904,                  53P     52
-48.8581504398035,81.,-18.0009926652904,-78.8601504398035,81.,        53P     53
18.0010073347096,-48.8581504398035,81.,18.0010073347095,              53P     54
-78.8601504398035,81.,-12.601,17.401,-16.601,19.401;                  53P     55
128,1,1,1,1,0,0,1,0,0,-12.601,-12.601,17.401,17.401,-16.601,          55P     56
-16.601,19.401,19.401,1.,1.,1.,1.,-18.0009926652904,                  55P     57
-78.8601504398035,9.00000000000004,-18.0009926652904,                 55P     58
-48.8581504398035,9.00000000000004,18.0010073347095,                  55P     59
-78.8601504398035,9.00000000000004,18.0010073347096,                  55P     60
-48.8581504398035,9.00000000000004,-12.601,17.401,-16.601,            55P     61
19.401;                                                               55P     62
128,1,1,1,1,0,0,1,0,0,-36.001,-36.001,36.001,36.001,-12.601,          57P     63
-12.601,17.401,17.401,1.,1.,1.,1.,-17.9999926652904,                  57P     64
-78.8601504398035,8.99900000000004,-17.9999926652904,                 57P     65
-78.8601504398035,81.001,-17.9999926652904,-48.8581504398035,         57P     66
8.99900000000004,-17.9999926652904,-48.8581504398035,81.001,          57P     67
-36.001,36.001,-12.601,17.401;                                        57P     68
128,1,1,1,1,0,0,1,0,0,-36.001,-36.001,36.001,36.001,-16.601,          59P     69
-16.601,19.401,19.401,1.,1.,1.,1.,-18.0009926652904,                  59P     70
-78.8591504398035,81.001,-18.0009926652904,-78.8591504398035,         59P     71
8.99900000000004,18.0010073347095,-78.8591504398035,81.001,           59P     72
18.0010073347095,-78.8591504398035,8.99900000000004,-36.001,          59P     73
36.001,-16.601,19.401;                                                59P     74
128,1,1,1,1,0,0,1,0,0,-36.001,-36.001,36.001,36.001,-12.601,          61P     75
-12.601,17.401,17.401,1.,1.,1.,1.,18.0000073347095,                   61P     76
-78.8601504398035,81.001,18.0000073347095,-78.8601504398035,          61P     77
8.99900000000004,18.0000073347096,-48.8581504398035,81.001,           61P     78
18.0000073347096,-48.8581504398035,8.99900000000004,-36.001,          61P     79
36.001,-12.601,17.401;                                                61P     80
128,1,1,1,1,0,0,1,0,0,-36.001,-36.001,36.001,36.001,-16.601,          63P     81
-16.601,19.401,19.401,1.,1.,1.,1.,-18.0009926652904,                  63P     82
-48.8591504398035,8.99900000000004,-18.0009926652904,                 63P     83
-48.8591504398035,81.001,18.0010073347096,-48.8591504398035,          63P     84
8.99900000000004,18.0010073347096,-48.8591504398035,81.001,           63P     85
-36.001,36.001,-16.601,19.401;                                        63P     86
502,8,-17.9999926652904,-48.8591504398035,81.,18.0000073347096,       65P     87
-48.8591504398035,81.,-17.9999926652904,-78.8591504398035,81.,        65P     88
18.0000073347095,-78.8591504398035,81.,18.0000073347096,              65P     89
-48.8591504398035,9.00000000000004,-17.9999926652904,                 65P     90
-48.8591504398035,9.00000000000004,18.0000073347095,                  65P     91
-78.8591504398035,9.00000000000004,-17.9999926652904,                 65P     92
-78.8591504398035,9.00000000000004;                                   65P     93
504,12,29,65,1,65,2,31,65,3,65,1,33,65,4,65,3,35,65,2,65,4,37,        67P     94
65,5,65,6,39,65,7,65,5,41,65,8,65,7,43,65,6,65,8,45,65,3,65,8,        67P     95
47,65,1,65,6,49,65,4,65,7,51,65,2,65,5;                               67P     96
406,1,2H71;                                                           69P     97
406,2,0,1H0;                                                          71P     98
314,100.,100.,100.,;                                                  73P     99
S      1G      3D     74P     99                                        T      1
