                                                                        S      1
,,,1He,22HAutoCAD 2022 - English,62HAutodesk Translation Framework DWG pG      1
roducer (atf_dwg_producer),32,38,7,99,15,,1.,2,2HMM,1,0.08,15H20220308.2G      2
14014,0.01,10000.,,7Hunknown,11,0,15H20220226.190018;                   G      3
     186       1                       1                        00000000D      1
     186            -105       1       0                               0D      2
     186       2                       1                        00000000D      3
     186            -105       1       0                               0D      4
     514       3                                                00010000D      5
     514                       1       1                               0D      6
     514       4                                                00010000D      7
     514                       1       1                               0D      8
     510       5                                                00010000D      9
     510            -105       1       1                               0D     10
     510       6                                                00010000D     11
     510            -105       1       1                               0D     12
     510       7                                                00010000D     13
     510            -105       1       1                               0D     14
     510       8                                                00010000D     15
     510            -105       1       1                               0D     16
     510       9                                                00010000D     17
     510            -105       1       1                               0D     18
     510      10                                                00010000D     19
     510            -105       1       1                               0D     20
     510      11                                                00010000D     21
     510            -105       1       1                               0D     22
     510      12                                                00010000D     23
     510            -105       1       1                               0D     24
     508      13                                                00010000D     25
     508                       1       1                               0D     26
     508      14                                                00010000D     27
     508                       1       1                               0D     28
     508      15                                                00010000D     29
     508                       1       1                               0D     30
     508      16                                                00010000D     31
     508                       1       1                               0D     32
     508      17                                                00010000D     33
     508                       1       1                               0D     34
     508      18                                                00010000D     35
     508                       1       1                               0D     36
     508      19                                                00010000D     37
     508                       1       1                               0D     38
     508      20                                                00010000D     39
     508                       1       1                               0D     40
     508      21                                                00010000D     41
     508                       1       1                               0D     42
     508      22                                                00010000D     43
     508                       1       1                               0D     44
     508      23                                                00010000D     45
     508                       1       1                               0D     46
     508      24                                                00010000D     47
     508                       1       1                               0D     48
     126      25                                                00010000D     49
     126       0              15       0                               0D     50
     126      40                                                00010000D     51
     126       0               4       0                               0D     52
     126      44                                                00010000D     53
     126       0              15       0                               0D     54
     126      59                                                00010000D     55
     126       0              15       0                               0D     56
     126      74                                                00010000D     57
     126       0               4       0                               0D     58
     126      78                                                00010000D     59
     126       0              15       0                               0D     60
     126      93                                                00010000D     61
     126       0              15       0                               0D     62
     126     108                                                00010000D     63
     126       0               4       0                               0D     64
     126     112                                                00010000D     65
     126       0              15       0                               0D     66
     126     127                                                00010000D     67
     126       0              15       0                               0D     68
     126     142                                                00010000D     69
     126       0               4       0                               0D     70
     126     146                                                00010000D     71
     126       0              15       0                               0D     72
     128     161                                                00010000D     73
     128       0    -105      26       0                               0D     74
     128     187                                                00010000D     75
     128       0    -105      26       0                               0D     76
     128     213                                                00010000D     77
     128       0    -105       6       0                               0D     78
     128     219                                                00010000D     79
     128       0    -105       6       0                               0D     80
     128     225                                                00010000D     81
     128       0    -105      26       0                               0D     82
     128     251                                                00010000D     83
     128       0    -105      26       0                               0D     84
     128     277                                                00010000D     85
     128       0    -105       6       0                               0D     86
     128     283                                                00010000D     87
     128       0    -105       6       0                               0D     88
     502     289                                                00010000D     89
     502                       4       1                               0D     90
     502     293                                                00010000D     91
     502                       4       1                               0D     92
     504     297                                                00010001D     93
     504                       2       1                               0D     94
     504     299                                                00010001D     95
     504                       2       1                               0D     96
     406     301                                                00000000D     97
     406                       1      15                               0D     98
     406     302                                                00000000D     99
     406                       1      15                               0D    100
     406     303                       1                        00000000D    101
     406            -103       1       3                               0D    102
     314     304                                                00000200D    103
     314                       1       0                               0D    104
     314     305                                                00000200D    105
     314                       1       0                               0D    106
186,5,1,0,0,1,97;                                                      1P      1
186,7,1,0,0,1,99;                                                      3P      2
514,4,9,1,11,1,13,1,15,1;                                              5P      3
514,4,17,1,19,1,21,1,23,1;                                             7P      4
510,73,1,1,25;                                                         9P      5
510,75,1,1,27;                                                        11P      6
510,77,2,1,29,31;                                                     13P      7
510,79,2,1,33,35;                                                     15P      8
510,81,1,1,37;                                                        17P      9
510,83,1,1,39;                                                        19P     10
510,85,2,1,41,43;                                                     21P     11
510,87,2,1,45,47;                                                     23P     12
508,4,0,93,1,1,0,0,93,2,1,0,0,93,3,0,0,0,93,2,0,0;                    25P     13
508,4,0,93,4,0,0,0,93,5,1,0,0,93,6,1,0,0,93,5,0,0;                    27P     14
508,1,0,93,4,1,0;                                                     29P     15
508,1,0,93,3,1,0;                                                     31P     16
508,1,0,93,6,0,0;                                                     33P     17
508,1,0,93,1,0,0;                                                     35P     18
508,4,0,95,1,1,0,0,95,2,1,0,0,95,3,0,0,0,95,2,0,0;                    37P     19
508,4,0,95,4,0,0,0,95,5,1,0,0,95,6,1,0,0,95,5,0,0;                    39P     20
508,1,0,95,4,1,0;                                                     41P     21
508,1,0,95,3,1,0;                                                     43P     22
508,1,0,95,6,0,0;                                                     45P     23
508,1,0,95,1,0,0;                                                     47P     24
126,8,2,0,1,0,0,-3.14159265358979,-3.14159265358979,                  49P     25
-3.14159265358979,-1.5707963267949,-1.5707963267949,0.,0.,            49P     26
1.5707963267949,1.5707963267949,3.14159265358979,                     49P     27
3.14159265358979,3.14159265358979,1.,0.707106781186548,1.,            49P     28
0.707106781186548,1.,0.707106781186548,1.,0.707106781186548,1.,       49P     29
-60.0110566148189,59.823834166167,34.199992665228,                    49P     30
-59.8567750703524,58.331789527077,34.199992665228,                    49P     31
-61.3488197094423,58.1775079826105,34.199992665228,                   49P     32
-62.8408643485323,58.023226438144,34.199992665228,                    49P     33
-62.9951458929988,59.515271077234,34.199992665228,                    49P     34
-63.1494274374653,61.0073157163239,34.199992665228,                   49P     35
-61.6573827983753,61.1615972607904,34.199992665228,                   49P     36
-60.1653381592854,61.3158788052569,34.199992665228,                   49P     37
-60.0110566148189,59.823834166167,34.199992665228,                    49P     38
-3.14159265358979,3.14159265358979,0.,0.,0.;                          49P     39
126,1,1,0,0,1,0,0.,0.,0.666666666666664,0.666666666666664,1.,1.,      51P     40
-60.0110566148189,59.823834166167,34.199992665228,                    51P     41
-60.0110566148189,59.823834166167,35.199992665228,0.,                 51P     42
0.666666666666664,0.,0.,0.;                                           51P     43
126,8,2,0,1,0,0,-3.14159265358979,-3.14159265358979,                  53P     44
-3.14159265358979,-1.5707963267949,-1.5707963267949,0.,0.,            53P     45
1.5707963267949,1.5707963267949,3.14159265358979,                     53P     46
3.14159265358979,3.14159265358979,1.,0.707106781186548,1.,            53P     47
0.707106781186548,1.,0.707106781186548,1.,0.707106781186548,1.,       53P     48
-60.0110566148189,59.823834166167,35.199992665228,                    53P     49
-59.8567750703524,58.331789527077,35.199992665228,                    53P     50
-61.3488197094423,58.1775079826105,35.199992665228,                   53P     51
-62.8408643485323,58.023226438144,35.199992665228,                    53P     52
-62.9951458929988,59.5152710772339,35.199992665228,                   53P     53
-63.1494274374653,61.0073157163239,35.199992665228,                   53P     54
-61.6573827983753,61.1615972607904,35.199992665228,                   53P     55
-60.1653381592854,61.3158788052569,35.199992665228,                   53P     56
-60.0110566148189,59.823834166167,35.199992665228,                    53P     57
-3.14159265358979,3.14159265358979,0.,0.,0.;                          53P     58
126,8,2,0,1,0,0,-3.14159265358979,-3.14159265358979,                  55P     59
-3.14159265358979,-1.5707963267949,-1.5707963267949,0.,0.,            55P     60
1.5707963267949,1.5707963267949,3.14159265358979,                     55P     61
3.14159265358979,3.14159265358979,1.,0.707106781186548,1.,            55P     62
0.707106781186548,1.,0.707106781186548,1.,0.707106781186548,1.,       55P     63
-55.5349226975491,60.2866787995666,35.199992665228,                   55P     64
-56.1520488754151,66.2548573559263,35.199992665228,                   55P     65
-62.1202274317749,65.6377311780602,35.199992665228,                   55P     66
-68.0884059881347,65.0206050001942,35.199992665228,                   55P     67
-67.4712798102686,59.0524264438344,35.199992665228,                   55P     68
-66.8541536324025,53.0842478874746,35.1999926652279,                  55P     69
-60.8859750760427,53.7013740653407,35.1999926652279,                  55P     70
-54.917796519683,54.3185002432068,35.1999926652279,                   55P     71
-55.5349226975491,60.2866787995666,35.199992665228,                   55P     72
-3.14159265358979,3.14159265358979,0.,0.,0.;                          55P     73
126,1,1,0,0,1,0,-0.166666666666666,-0.166666666666666,0.,0.,1.,       57P     74
1.,-55.5349226975491,60.2866787995666,35.199992665228,                57P     75
-55.5349226975491,60.2866787995666,34.199992665228,                   57P     76
-0.166666666666666,0.,0.,0.,0.;                                       57P     77
126,8,2,0,1,0,0,-3.14159265358979,-3.14159265358979,                  59P     78
-3.14159265358979,-1.5707963267949,-1.5707963267949,0.,0.,            59P     79
1.5707963267949,1.5707963267949,3.14159265358979,                     59P     80
3.14159265358979,3.14159265358979,1.,0.707106781186548,1.,            59P     81
0.707106781186548,1.,0.707106781186548,1.,0.707106781186548,1.,       59P     82
-55.5349226975491,60.2866787995666,34.199992665228,                   59P     83
-56.1520488754151,66.2548573559263,34.199992665228,                   59P     84
-62.1202274317749,65.6377311780602,34.199992665228,                   59P     85
-68.0884059881347,65.0206050001942,34.199992665228,                   59P     86
-67.4712798102686,59.0524264438344,34.199992665228,                   59P     87
-66.8541536324025,53.0842478874746,34.1999926652279,                  59P     88
-60.8859750760427,53.7013740653407,34.1999926652279,                  59P     89
-54.917796519683,54.3185002432068,34.1999926652279,                   59P     90
-55.5349226975491,60.2866787995666,34.199992665228,                   59P     91
-3.14159265358979,3.14159265358979,0.,0.,0.;                          59P     92
126,8,2,0,1,0,0,-3.14159265358979,-3.14159265358979,                  61P     93
-3.14159265358979,-1.5707963267949,-1.5707963267949,0.,0.,            61P     94
1.5707963267949,1.5707963267949,3.14159265358979,                     61P     95
3.14159265358979,3.14159265358979,1.,0.707106781186548,1.,            61P     96
0.707106781186548,1.,0.707106781186548,1.,0.707106781186548,1.,       61P     97
-29.755080172873,57.4288604683886,34.199992665228,                    61P     98
-29.6007986284065,55.9368158292987,34.199992665228,                   61P     99
-31.0928432674965,55.7825342848322,34.199992665228,                   61P    100
-32.5848879065864,55.6282527403656,34.199992665228,                   61P    101
-32.7391694510529,57.1202973794556,34.199992665228,                   61P    102
-32.8934509955194,58.6123420185455,34.199992665228,                   61P    103
-31.4014063564295,58.766623563012,34.199992665228,                    61P    104
-29.9093617173396,58.9209051074786,34.199992665228,                   61P    105
-29.755080172873,57.4288604683886,34.199992665228,                    61P    106
-3.14159265358979,3.14159265358979,0.,0.,0.;                          61P    107
126,1,1,0,0,1,0,0.,0.,0.666666666666664,0.666666666666664,1.,1.,      63P    108
-29.755080172873,57.4288604683886,34.199992665228,                    63P    109
-29.755080172873,57.4288604683886,35.199992665228,0.,                 63P    110
0.666666666666664,0.,0.,0.;                                           63P    111
126,8,2,0,1,0,0,-3.14159265358979,-3.14159265358979,                  65P    112
-3.14159265358979,-1.5707963267949,-1.5707963267949,0.,0.,            65P    113
1.5707963267949,1.5707963267949,3.14159265358979,                     65P    114
3.14159265358979,3.14159265358979,1.,0.707106781186548,1.,            65P    115
0.707106781186548,1.,0.707106781186548,1.,0.707106781186548,1.,       65P    116
-29.755080172873,57.4288604683886,35.199992665228,                    65P    117
-29.6007986284065,55.9368158292987,35.199992665228,                   65P    118
-31.0928432674965,55.7825342848322,35.199992665228,                   65P    119
-32.5848879065864,55.6282527403656,35.199992665228,                   65P    120
-32.7391694510529,57.1202973794556,35.199992665228,                   65P    121
-32.8934509955194,58.6123420185455,35.199992665228,                   65P    122
-31.4014063564295,58.766623563012,35.199992665228,                    65P    123
-29.9093617173396,58.9209051074786,35.199992665228,                   65P    124
-29.755080172873,57.4288604683886,35.199992665228,                    65P    125
-3.14159265358979,3.14159265358979,0.,0.,0.;                          65P    126
126,8,2,0,1,0,0,-3.14159265358979,-3.14159265358979,                  67P    127
-3.14159265358979,-1.5707963267949,-1.5707963267949,0.,0.,            67P    128
1.5707963267949,1.5707963267949,3.14159265358979,                     67P    129
3.14159265358979,3.14159265358979,1.,0.707106781186548,1.,            67P    130
0.707106781186548,1.,0.707106781186548,1.,0.707106781186548,1.,       67P    131
-25.2789462556032,57.8917051017882,35.199992665228,                   67P    132
-25.8960724334693,63.8598836581479,35.199992665228,                   67P    133
-31.8642509898291,63.2427574802819,35.199992665228,                   67P    134
-37.8324295461888,62.6256313024158,35.199992665228,                   67P    135
-37.2153033683228,56.657452746056,35.199992665228,                    67P    136
-36.5981771904567,50.6892741896963,35.1999926652279,                  67P    137
-30.6299986340969,51.3064003675623,35.1999926652279,                  67P    138
-24.6618200777371,51.9235265454284,35.1999926652279,                  67P    139
-25.2789462556032,57.8917051017882,35.199992665228,                   67P    140
-3.14159265358979,3.14159265358979,0.,0.,0.;                          67P    141
126,1,1,0,0,1,0,-0.166666666666666,-0.166666666666666,0.,0.,1.,       69P    142
1.,-25.2789462556032,57.8917051017882,35.199992665228,                69P    143
-25.2789462556032,57.8917051017882,34.199992665228,                   69P    144
-0.166666666666666,0.,0.,0.,0.;                                       69P    145
126,8,2,0,1,0,0,-3.14159265358979,-3.14159265358979,                  71P    146
-3.14159265358979,-1.5707963267949,-1.5707963267949,0.,0.,            71P    147
1.5707963267949,1.5707963267949,3.14159265358979,                     71P    148
3.14159265358979,3.14159265358979,1.,0.707106781186548,1.,            71P    149
0.707106781186548,1.,0.707106781186548,1.,0.707106781186548,1.,       71P    150
-25.2789462556032,57.8917051017882,34.199992665228,                   71P    151
-25.8960724334693,63.859883658148,34.199992665228,                    71P    152
-31.8642509898291,63.2427574802819,34.199992665228,                   71P    153
-37.8324295461888,62.6256313024158,34.199992665228,                   71P    154
-37.2153033683228,56.657452746056,34.199992665228,                    71P    155
-36.5981771904567,50.6892741896963,34.1999926652279,                  71P    156
-30.6299986340969,51.3064003675623,34.1999926652279,                  71P    157
-24.6618200777371,51.9235265454284,34.1999926652279,                  71P    158
-25.2789462556032,57.8917051017882,34.199992665228,                   71P    159
-3.14159265358979,3.14159265358979,0.,0.,0.;                          71P    160
128,1,8,1,2,0,1,0,0,1,0.,0.,0.666666666666667,0.666666666666667,      73P    161
-3.14159265358979,-3.14159265358979,-3.14159265358979,                73P    162
-1.5707963267949,-1.5707963267949,0.,0.,1.5707963267949,              73P    163
1.5707963267949,3.14159265358979,3.14159265358979,                    73P    164
3.14159265358979,1.,1.,0.707106781186548,0.707106781186548,1.,        73P    165
1.,0.707106781186548,0.707106781186548,1.,1.,0.707106781186548,       73P    166
0.707106781186548,1.,1.,0.707106781186548,0.707106781186548,1.,       73P    167
1.,-60.0110566148189,59.823834166167,34.199992665228,                 73P    168
-60.0110566148189,59.823834166167,35.199992665228,                    73P    169
-60.1653381592854,61.3158788052569,34.199992665228,                   73P    170
-60.1653381592854,61.3158788052569,35.199992665228,                   73P    171
-61.6573827983753,61.1615972607904,34.199992665228,                   73P    172
-61.6573827983753,61.1615972607904,35.199992665228,                   73P    173
-63.1494274374653,61.0073157163239,34.199992665228,                   73P    174
-63.1494274374653,61.0073157163239,35.199992665228,                   73P    175
-62.9951458929988,59.515271077234,34.199992665228,                    73P    176
-62.9951458929988,59.5152710772339,35.199992665228,                   73P    177
-62.8408643485322,58.023226438144,34.199992665228,                    73P    178
-62.8408643485323,58.023226438144,35.199992665228,                    73P    179
-61.3488197094423,58.1775079826105,34.199992665228,                   73P    180
-61.3488197094423,58.1775079826105,35.199992665228,                   73P    181
-59.8567750703524,58.331789527077,34.199992665228,                    73P    182
-59.8567750703524,58.331789527077,35.199992665228,                    73P    183
-60.0110566148189,59.823834166167,34.199992665228,                    73P    184
-60.0110566148189,59.823834166167,35.199992665228,0.,                 73P    185
0.666666666666667,-3.14159265358979,3.14159265358979;                 73P    186
128,1,8,1,2,0,1,0,0,1,0.,0.,0.166666666666667,0.166666666666667,      75P    187
-3.14159265358979,-3.14159265358979,-3.14159265358979,                75P    188
-1.5707963267949,-1.5707963267949,0.,0.,1.5707963267949,              75P    189
1.5707963267949,3.14159265358979,3.14159265358979,                    75P    190
3.14159265358979,1.,1.,0.707106781186548,0.707106781186548,1.,        75P    191
1.,0.707106781186548,0.707106781186548,1.,1.,0.707106781186548,       75P    192
0.707106781186548,1.,1.,0.707106781186548,0.707106781186548,1.,       75P    193
1.,-55.5349226975491,60.2866787995666,35.199992665228,                75P    194
-55.5349226975491,60.2866787995666,34.199992665228,                   75P    195
-56.1520488754151,66.2548573559263,35.199992665228,                   75P    196
-56.1520488754151,66.2548573559263,34.199992665228,                   75P    197
-62.1202274317749,65.6377311780602,35.199992665228,                   75P    198
-62.1202274317749,65.6377311780602,34.199992665228,                   75P    199
-68.0884059881347,65.0206050001942,35.199992665228,                   75P    200
-68.0884059881347,65.0206050001942,34.199992665228,                   75P    201
-67.4712798102686,59.0524264438344,35.199992665228,                   75P    202
-67.4712798102686,59.0524264438344,34.199992665228,                   75P    203
-66.8541536324025,53.0842478874746,35.1999926652279,                  75P    204
-66.8541536324025,53.0842478874746,34.1999926652279,                  75P    205
-60.8859750760427,53.7013740653407,35.1999926652279,                  75P    206
-60.8859750760427,53.7013740653407,34.1999926652279,                  75P    207
-54.917796519683,54.3185002432068,35.1999926652279,                   75P    208
-54.917796519683,54.3185002432068,34.1999926652279,                   75P    209
-55.5349226975491,60.2866787995666,35.199992665228,                   75P    210
-55.5349226975491,60.2866787995666,34.199992665228,0.,                75P    211
0.166666666666667,-3.14159265358979,3.14159265358979;                 75P    212
128,1,1,1,1,0,0,1,0,0,-6.001,-6.001,6.001,6.001,-6.001,-6.001,        77P    213
6.001,6.001,1.,1.,1.,1.,-56.1511570333521,66.2559549067154,           77P    214
35.199992665228,-68.0895035389237,65.0214968422572,                   77P    215
35.199992665228,-54.9166989688939,54.3176084011437,                   77P    216
35.1999926652279,-66.8550454744656,53.0831503366856,                  77P    217
35.1999926652279,-6.001,6.001,-6.001,6.001;                           77P    218
128,1,1,1,1,0,0,1,0,0,-6.001,-6.001,6.001,6.001,-6.001,-6.001,        79P    219
6.001,6.001,1.,1.,1.,1.,-68.0895035389237,65.0214968422572,           79P    220
34.199992665228,-56.1511570333521,66.2559549067154,                   79P    221
34.199992665228,-66.8550454744656,53.0831503366856,                   79P    222
34.1999926652279,-54.9166989688939,54.3176084011437,                  79P    223
34.1999926652279,-6.001,6.001,-6.001,6.001;                           79P    224
128,1,8,1,2,0,1,0,0,1,0.,0.,0.666666666666667,0.666666666666667,      81P    225
-3.14159265358979,-3.14159265358979,-3.14159265358979,                81P    226
-1.5707963267949,-1.5707963267949,0.,0.,1.5707963267949,              81P    227
1.5707963267949,3.14159265358979,3.14159265358979,                    81P    228
3.14159265358979,1.,1.,0.707106781186548,0.707106781186548,1.,        81P    229
1.,0.707106781186548,0.707106781186548,1.,1.,0.707106781186548,       81P    230
0.707106781186548,1.,1.,0.707106781186548,0.707106781186548,1.,       81P    231
1.,-29.755080172873,57.4288604683886,34.199992665228,                 81P    232
-29.755080172873,57.4288604683886,35.199992665228,                    81P    233
-29.9093617173396,58.9209051074786,34.199992665228,                   81P    234
-29.9093617173396,58.9209051074786,35.199992665228,                   81P    235
-31.4014063564295,58.766623563012,34.199992665228,                    81P    236
-31.4014063564295,58.766623563012,35.199992665228,                    81P    237
-32.8934509955194,58.6123420185455,34.199992665228,                   81P    238
-32.8934509955194,58.6123420185455,35.199992665228,                   81P    239
-32.7391694510529,57.1202973794556,34.199992665228,                   81P    240
-32.7391694510529,57.1202973794556,35.199992665228,                   81P    241
-32.5848879065864,55.6282527403656,34.199992665228,                   81P    242
-32.5848879065864,55.6282527403656,35.199992665228,                   81P    243
-31.0928432674965,55.7825342848322,34.199992665228,                   81P    244
-31.0928432674965,55.7825342848322,35.199992665228,                   81P    245
-29.6007986284065,55.9368158292987,34.199992665228,                   81P    246
-29.6007986284065,55.9368158292987,35.199992665228,                   81P    247
-29.755080172873,57.4288604683886,34.199992665228,                    81P    248
-29.755080172873,57.4288604683886,35.199992665228,0.,                 81P    249
0.666666666666667,-3.14159265358979,3.14159265358979;                 81P    250
128,1,8,1,2,0,1,0,0,1,0.,0.,0.166666666666667,0.166666666666667,      83P    251
-3.14159265358979,-3.14159265358979,-3.14159265358979,                83P    252
-1.5707963267949,-1.5707963267949,0.,0.,1.5707963267949,              83P    253
1.5707963267949,3.14159265358979,3.14159265358979,                    83P    254
3.14159265358979,1.,1.,0.707106781186548,0.707106781186548,1.,        83P    255
1.,0.707106781186548,0.707106781186548,1.,1.,0.707106781186548,       83P    256
0.707106781186548,1.,1.,0.707106781186548,0.707106781186548,1.,       83P    257
1.,-25.2789462556032,57.8917051017882,35.199992665228,                83P    258
-25.2789462556032,57.8917051017882,34.199992665228,                   83P    259
-25.8960724334693,63.8598836581479,35.199992665228,                   83P    260
-25.8960724334693,63.859883658148,34.199992665228,                    83P    261
-31.8642509898291,63.2427574802819,35.199992665228,                   83P    262
-31.8642509898291,63.2427574802819,34.199992665228,                   83P    263
-37.8324295461888,62.6256313024158,35.199992665228,                   83P    264
-37.8324295461888,62.6256313024158,34.199992665228,                   83P    265
-37.2153033683228,56.657452746056,35.199992665228,                    83P    266
-37.2153033683228,56.657452746056,34.199992665228,                    83P    267
-36.5981771904567,50.6892741896963,35.1999926652279,                  83P    268
-36.5981771904567,50.6892741896963,34.1999926652279,                  83P    269
-30.6299986340969,51.3064003675623,35.1999926652279,                  83P    270
-30.6299986340969,51.3064003675623,34.1999926652279,                  83P    271
-24.6618200777371,51.9235265454284,35.1999926652279,                  83P    272
-24.6618200777371,51.9235265454284,34.1999926652279,                  83P    273
-25.2789462556032,57.8917051017882,35.199992665228,                   83P    274
-25.2789462556032,57.8917051017882,34.199992665228,0.,                83P    275
0.166666666666667,-3.14159265358979,3.14159265358979;                 83P    276
128,1,1,1,1,0,0,1,0,0,-6.001,-6.001,6.001,6.001,-6.001,-6.001,        85P    277
6.001,6.001,1.,1.,1.,1.,-25.8951805914062,63.860981208937,            85P    278
35.199992665228,-37.8335270969779,62.6265231444789,                   85P    279
35.199992665228,-24.6607225269481,51.9226347033653,                   85P    280
35.1999926652279,-36.5990690325198,50.6881766389072,                  85P    281
35.1999926652279,-6.001,6.001,-6.001,6.001;                           85P    282
128,1,1,1,1,0,0,1,0,0,-6.001,-6.001,6.001,6.001,-6.001,-6.001,        87P    283
6.001,6.001,1.,1.,1.,1.,-37.8335270969779,62.6265231444789,           87P    284
34.199992665228,-25.8951805914062,63.860981208937,                    87P    285
34.199992665228,-36.5990690325198,50.6881766389072,                   87P    286
34.1999926652279,-24.6607225269481,51.9226347033653,                  87P    287
34.1999926652279,-6.001,6.001,-6.001,6.001;                           87P    288
502,4,-60.0110566148189,59.823834166167,34.199992665228,              89P    289
-60.0110566148189,59.823834166167,35.199992665228,                    89P    290
-55.5349226975491,60.2866787995666,35.199992665228,                   89P    291
-55.5349226975491,60.2866787995666,34.199992665228;                   89P    292
502,4,-29.755080172873,57.4288604683886,34.199992665228,              91P    293
-29.755080172873,57.4288604683886,35.199992665228,                    91P    294
-25.2789462556032,57.8917051017882,35.199992665228,                   91P    295
-25.2789462556032,57.8917051017882,34.199992665228;                   91P    296
504,6,49,89,1,89,1,51,89,1,89,2,53,89,2,89,2,55,89,3,89,3,57,89,      93P    297
3,89,4,59,89,4,89,4;                                                  93P    298
504,6,61,91,1,91,1,63,91,1,91,2,65,91,2,91,2,67,91,3,91,3,69,91,      95P    299
3,91,4,71,91,4,91,4;                                                  95P    300
406,1,2H72;                                                           97P    301
406,1,2H76;                                                           99P    302
406,2,0,8HDribbler;                                                  101P    303
314,80.,80.,80.,;                                                    103P    304
314,0.,74.9019607843137,100.,;                                       105P    305
S      1G      3D    106P    305                                        T      1
