                                                                        S      1
,,,15Hlayer3to4Stands,22HAutoCAD 2022 - English,62HAutodesk Translation G      1
Framework DWG producer (atf_dwg_producer),32,38,7,99,15,,1.,2,2HMM,1,   G      2
0.08,15H20220306.153423,0.01,10000.,,7Hunknown,11,0,15H20220226.190018; G      3
     186       1                       1                        00000000D      1
     186            -161       1       0                               0D      2
     186       2                       1                        00000000D      3
     186            -161       1       0                               0D      4
     186       3                       1                        00000000D      5
     186            -161       1       0                               0D      6
     514       4                                                00010000D      7
     514                       1       1                               0D      8
     514       5                                                00010000D      9
     514                       1       1                               0D     10
     514       6                                                00010000D     11
     514                       1       1                               0D     12
     510       7                                                00010000D     13
     510            -161       1       1                               0D     14
     510       8                                                00010000D     15
     510            -161       1       1                               0D     16
     510       9                                                00010000D     17
     510            -161       1       1                               0D     18
     510      10                                                00010000D     19
     510            -161       1       1                               0D     20
     510      11                                                00010000D     21
     510            -161       1       1                               0D     22
     510      12                                                00010000D     23
     510            -161       1       1                               0D     24
     510      13                                                00010000D     25
     510            -161       1       1                               0D     26
     510      14                                                00010000D     27
     510            -161       1       1                               0D     28
     510      15                                                00010000D     29
     510            -161       1       1                               0D     30
     510      16                                                00010000D     31
     510            -161       1       1                               0D     32
     510      17                                                00010000D     33
     510            -161       1       1                               0D     34
     510      18                                                00010000D     35
     510            -161       1       1                               0D     36
     508      19                                                00010000D     37
     508                       1       1                               0D     38
     508      20                                                00010000D     39
     508                       1       1                               0D     40
     508      21                                                00010000D     41
     508                       1       1                               0D     42
     508      22                                                00010000D     43
     508                       1       1                               0D     44
     508      23                                                00010000D     45
     508                       1       1                               0D     46
     508      24                                                00010000D     47
     508                       1       1                               0D     48
     508      25                                                00010000D     49
     508                       1       1                               0D     50
     508      26                                                00010000D     51
     508                       1       1                               0D     52
     508      27                                                00010000D     53
     508                       1       1                               0D     54
     508      28                                                00010000D     55
     508                       1       1                               0D     56
     508      29                                                00010000D     57
     508                       2       1                               0D     58
     508      31                                                00010000D     59
     508                       2       1                               0D     60
     508      33                                                00010000D     61
     508                       1       1                               0D     62
     508      34                                                00010000D     63
     508                       1       1                               0D     64
     508      35                                                00010000D     65
     508                       1       1                               0D     66
     508      36                                                00010000D     67
     508                       1       1                               0D     68
     508      37                                                00010000D     69
     508                       1       1                               0D     70
     508      38                                                00010000D     71
     508                       1       1                               0D     72
     126      39                                                00010000D     73
     126       0              12       0                               0D     74
     126      51                                                00010000D     75
     126       0              13       0                               0D     76
     126      64                                                00010000D     77
     126       0              12       0                               0D     78
     126      76                                                00010000D     79
     126       0              14       0                               0D     80
     126      90                                                00010000D     81
     126       0               4       0                               0D     82
     126      94                                                00010000D     83
     126       0               4       0                               0D     84
     126      98                                                00010000D     85
     126       0               9       0                               0D     86
     126     107                                                00010000D     87
     126       0               7       0                               0D     88
     126     114                                                00010000D     89
     126       0              13       0                               0D     90
     126     127                                                00010000D     91
     126       0              13       0                               0D     92
     126     140                                                00010000D     93
     126       0              13       0                               0D     94
     126     153                                                00010000D     95
     126       0               3       0                               0D     96
     126     156                                                00010000D     97
     126       0               3       0                               0D     98
     126     159                                                00010000D     99
     126       0               3       0                               0D    100
     126     162                                                00010000D    101
     126       0               4       0                               0D    102
     126     166                                                00010000D    103
     126       0              12       0                               0D    104
     126     178                                                00010000D    105
     126       0              13       0                               0D    106
     126     191                                                00010000D    107
     126       0              12       0                               0D    108
     126     203                                                00010000D    109
     126       0              13       0                               0D    110
     126     216                                                00010000D    111
     126       0               3       0                               0D    112
     126     219                                                00010000D    113
     126       0               3       0                               0D    114
     128     222                                                00010000D    115
     128       0    -161       6       0                               0D    116
     128     228                                                00010000D    117
     128       0    -161       5       0                               0D    118
     128     233                                                00010000D    119
     128       0    -161      22       0                               0D    120
     128     255                                                00010000D    121
     128       0    -161      23       0                               0D    122
     128     278                                                00010000D    123
     128       0    -161       6       0                               0D    124
     128     284                                                00010000D    125
     128       0    -161       5       0                               0D    126
     128     289                                                00010000D    127
     128       0    -161      22       0                               0D    128
     128     311                                                00010000D    129
     128       0    -161      23       0                               0D    130
     128     334                                                00010000D    131
     128       0    -161       6       0                               0D    132
     128     340                                                00010000D    133
     128       0    -161       5       0                               0D    134
     128     345                                                00010000D    135
     128       0    -161      21       0                               0D    136
     128     366                                                00010000D    137
     128       0    -161      22       0                               0D    138
     502     388                                                00010000D    139
     502                       4       1                               0D    140
     502     392                                                00010000D    141
     502                       6       1                               0D    142
     502     398                                                00010000D    143
     502                       4       1                               0D    144
     504     402                                                00010001D    145
     504                       2       1                               0D    146
     504     404                                                00010001D    147
     504                       3       1                               0D    148
     504     407                                                00010001D    149
     504                       2       1                               0D    150
     406     409                                                00000000D    151
     406                       1      15                               0D    152
     406     410                                                00000000D    153
     406                       1      15                               0D    154
     406     411                                                00000000D    155
     406                       1      15                               0D    156
     406     412                       1                        00000000D    157
     406            -159       1       3                               0D    158
     314     413                                                00000200D    159
     314                       1       0                               0D    160
     314     414                                                00000200D    161
     314                       1       0                               0D    162
186,7,1,0,0,1,151;                                                     1P      1
186,9,1,0,0,1,153;                                                     3P      2
186,11,1,0,0,1,155;                                                    5P      3
514,4,13,1,15,1,17,1,19,1;                                             7P      4
514,4,21,1,23,1,25,1,27,1;                                             9P      5
514,4,29,1,31,1,33,1,35,1;                                            11P      6
510,115,2,1,37,39;                                                    13P      7
510,117,2,1,41,43;                                                    15P      8
510,119,1,1,45;                                                       17P      9
510,121,1,1,47;                                                       19P     10
510,123,2,1,49,51;                                                    21P     11
510,125,2,1,53,55;                                                    23P     12
510,127,1,1,57;                                                       25P     13
510,129,1,1,59;                                                       27P     14
510,131,2,1,61,63;                                                    29P     15
510,133,2,1,65,67;                                                    31P     16
510,135,1,1,69;                                                       33P     17
510,137,1,1,71;                                                       35P     18
508,1,0,145,1,0,0;                                                    37P     19
508,1,0,145,2,0,0;                                                    39P     20
508,1,0,145,3,1,0;                                                    41P     21
508,1,0,145,4,1,0;                                                    43P     22
508,4,0,145,3,0,0,0,145,5,1,0,0,145,1,1,0,0,145,5,0,0;                45P     23
508,4,0,145,4,0,0,0,145,6,1,0,0,145,2,1,0,0,145,6,0,0;                47P     24
508,2,0,147,1,0,0,0,147,2,0,0;                                        49P     25
508,1,0,147,3,0,0;                                                    51P     26
508,1,0,147,4,1,0;                                                    53P     27
508,1,0,147,5,1,0;                                                    55P     28
508,7,0,147,1,1,0,0,147,6,1,0,0,147,4,0,0,0,147,6,0,0,0,147,2,1,      57P     29
0,0,147,7,0,0,0,147,7,1,0;                                            57P     30
508,6,0,147,3,1,0,0,147,8,0,0,0,147,9,1,0,0,147,5,0,0,0,147,9,0,      59P     31
0,0,147,8,1,0;                                                        59P     32
508,1,0,149,1,1,0;                                                    61P     33
508,1,0,149,2,1,0;                                                    63P     34
508,1,0,149,3,0,0;                                                    65P     35
508,1,0,149,4,0,0;                                                    67P     36
508,4,0,149,3,1,0,0,149,5,1,0,0,149,1,0,0,0,149,5,0,0;                69P     37
508,4,0,149,4,1,0,0,149,6,1,0,0,149,2,0,0,0,149,6,0,0;                71P     38
126,8,2,0,1,0,0,-6.28318530717959,-6.28318530717959,                  73P     39
-6.28318530717959,-4.71238898038469,-4.71238898038469,                73P     40
-3.14159265358979,-3.14159265358979,-1.5707963267949,                 73P     41
-1.5707963267949,0.,0.,0.,1.,0.707106781186548,1.,                    73P     42
0.707106781186548,1.,0.707106781186548,1.,0.707106781186548,1.,       73P     43
-96.4999926586631,-2.02139009930034D-5,196.2,-96.4999926586631,       73P     44
2.49997978609901,196.2,-93.9999926586631,2.49997978609901,196.2,      73P     45
-91.4999926586631,2.49997978609901,196.2,-91.4999926586631,           73P     46
-2.02139009939219D-5,196.2,-91.4999926586631,-2.50002021390099,       73P     47
196.2,-93.9999926586631,-2.50002021390099,196.2,                      73P     48
-96.4999926586631,-2.50002021390099,196.2,-96.4999926586631,          73P     49
-2.02139009936158D-5,196.2,-6.28318530717959,0.,0.,0.,0.;             73P     50
126,8,2,0,1,0,0,-3.14159265358979,-3.14159265358979,                  75P     51
-3.14159265358979,-1.57079632679489,-1.57079632679489,                75P     52
6.21724893790088D-15,6.21724893790088D-15,1.5707963267949,            75P     53
1.5707963267949,3.1415926535898,3.1415926535898,3.1415926535898,      75P     54
1.,0.707106781186538,1.,0.707106781186545,1.,0.707106781186538,       75P     55
1.,0.707106781186545,1.,-92.3999926586631,-2.02139009866686D-5,       75P     56
196.2,-92.3999926586631,1.59997978609901,196.2,                       75P     57
-93.9999926586631,1.599979786099,196.2,-95.5999926586631,             75P     58
1.59997978609899,196.2,-95.5999926586631,-2.02139010067597D-5,        75P     59
196.2,-95.5999926586631,-1.60002021390101,196.2,                      75P     60
-93.9999926586631,-1.600020213901,196.2,-92.3999926586631,            75P     61
-1.60002021390099,196.2,-92.3999926586631,-2.02139009870604D-5,       75P     62
196.2,-3.14159265358979,3.1415926535898,0.,0.,0.;                     75P     63
126,8,2,0,1,0,0,0.,0.,0.,1.5707963267949,1.5707963267949,             77P     64
3.14159265358979,3.14159265358979,4.71238898038469,                   77P     65
4.71238898038469,6.28318530717959,6.28318530717959,                   77P     66
6.28318530717959,1.,0.707106781186548,1.,0.707106781186548,1.,        77P     67
0.707106781186548,1.,0.707106781186548,1.,-96.4999926586631,          77P     68
-2.02139009936158D-5,100.2,-96.4999926586631,2.49997978609901,        77P     69
100.2,-93.9999926586631,2.49997978609901,100.2,                       77P     70
-91.4999926586631,2.49997978609901,100.2,-91.4999926586631,           77P     71
-2.02139009933096D-5,100.2,-91.4999926586631,-2.50002021390099,       77P     72
100.2,-93.9999926586631,-2.50002021390099,100.2,                      77P     73
-96.4999926586631,-2.50002021390099,100.2,-96.4999926586631,          77P     74
-2.02139009942281D-5,100.2,0.,6.28318530717959,0.,0.,0.;              77P     75
126,8,2,0,1,0,0,-3.14159265358979,-3.14159265358979,                  79P     76
-3.14159265358979,-1.5707963267949,-1.5707963267949,                  79P     77
-8.88178419700125D-16,-8.88178419700125D-16,1.5707963267949,          79P     78
1.5707963267949,3.14159265358979,3.14159265358979,                    79P     79
3.14159265358979,1.,0.707106781186542,1.,0.707106781186542,1.,        79P     80
0.707106781186542,1.,0.707106781186541,1.,-92.3999926586631,          79P     81
-2.02139009862806D-5,100.2,-92.3999926586631,1.59997978609901,        79P     82
100.2,-93.9999926586631,1.59997978609902,100.2,                       79P     83
-95.5999926586631,1.59997978609902,100.2,-95.5999926586631,           79P     84
-2.02139009836344D-5,100.2,-95.5999926586631,-1.60002021390098,       79P     85
100.2,-93.9999926586631,-1.60002021390099,100.2,                      79P     86
-92.3999926586631,-1.60002021390099,100.2,-92.3999926586631,          79P     87
-2.02139009866725D-5,100.2,-3.14159265358979,3.14159265358979,        79P     88
0.,0.,0.;                                                             79P     89
126,1,1,0,0,1,0,17.0000000000002,17.0000000000002,113.,113.,1.,       81P     90
1.,-96.4999926586631,-2.02139009936158D-5,100.2,                      81P     91
-96.4999926586631,-2.02139009936158D-5,196.2,17.0000000000002,        81P     92
113.,0.,0.,0.;                                                        81P     93
126,1,1,0,0,1,0,17.0000000000002,17.0000000000002,113.,113.,1.,       83P     94
1.,-92.3999926586631,-2.02139009865103D-5,100.2,                      83P     95
-92.3999926586631,-2.02139009865103D-5,196.2,17.0000000000002,        83P     96
113.,0.,0.,0.;                                                        83P     97
126,4,2,0,0,0,0,-6.28318530717959,-6.28318530717959,                  85P     98
-6.28318530717959,-4.71238898038469,-4.71238898038469,                85P     99
-3.14159265358979,-3.14159265358979,-3.14159265358979,1.,             85P    100
0.707106781186548,1.,0.707106781186548,1.,-2.49999266529022,          85P    101
-93.4838863120693,196.4,-2.49999266529022,-90.9838863120693,          85P    102
196.4,7.33470977820616D-6,-90.9838863120693,196.4,                    85P    103
2.50000733470978,-90.9838863120693,196.4,2.50000733470978,            85P    104
-93.4838863120693,196.4,-6.28318530717959,-3.14159265358979,0.,       85P    105
0.,0.;                                                                85P    106
126,4,2,0,0,0,0,-3.14159265358979,-3.14159265358979,                  87P    107
-3.14159265358979,-1.5707963267949,-1.5707963267949,0.,0.,0.,1.,      87P    108
0.707106781186548,1.,0.707106781186548,1.,2.50000733470978,           87P    109
-93.4838863120693,196.4,2.50000733470978,-95.9838863120693,           87P    110
196.4,7.33470977820616D-6,-95.9838863120693,196.4,                    87P    111
-2.49999266529022,-95.9838863120693,196.4,-2.49999266529022,          87P    112
-93.4838863120693,196.4,-3.14159265358979,0.,0.,0.,0.;                87P    113
126,8,2,0,1,0,0,-3.14159265358979,-3.14159265358979,                  89P    114
-3.14159265358979,-1.5707963267949,-1.5707963267949,0.,0.,            89P    115
1.5707963267949,1.5707963267949,3.14159265358979,                     89P    116
3.14159265358979,3.14159265358979,1.,0.707106781186542,1.,            89P    117
0.707106781186542,1.,0.707106781186542,1.,0.707106781186542,1.,       89P    118
1.60000733470977,-93.4838863120693,196.4,1.60000733470977,            89P    119
-91.8838863120693,196.4,7.33470976399531D-6,-91.8838863120693,        89P    120
196.4,-1.59999266529024,-91.8838863120693,196.4,                      89P    121
-1.59999266529024,-93.4838863120693,196.4,-1.59999266529024,          89P    122
-95.0838863120693,196.4,7.33470976399531D-6,-95.0838863120693,        89P    123
196.4,1.60000733470977,-95.0838863120693,196.4,1.60000733470977,      89P    124
-93.4838863120693,196.4,-3.14159265358979,3.14159265358979,0.,        89P    125
0.,0.;                                                                89P    126
126,8,2,0,1,0,0,-3.14159265358979,-3.14159265358979,                  91P    127
-3.14159265358979,-1.5707963267949,-1.5707963267949,0.,0.,            91P    128
1.5707963267949,1.5707963267949,3.14159265358979,                     91P    129
3.14159265358979,3.14159265358979,1.,0.707106781186548,1.,            91P    130
0.707106781186548,1.,0.707106781186548,1.,0.707106781186548,1.,       91P    131
2.50000733470978,-93.4838863120693,100.2,2.50000733470978,            91P    132
-95.9838863120693,100.2,7.33470977820616D-6,-95.9838863120693,        91P    133
100.2,-2.49999266529022,-95.9838863120693,100.2,                      91P    134
-2.49999266529022,-93.4838863120693,100.2,-2.49999266529022,          91P    135
-90.9838863120693,100.2,7.33470977820616D-6,-90.9838863120693,        91P    136
100.2,2.50000733470978,-90.9838863120693,100.2,2.50000733470978,      91P    137
-93.4838863120693,100.2,-3.14159265358979,3.14159265358979,0.,        91P    138
0.,0.;                                                                91P    139
126,8,2,0,1,0,0,-3.14159265358979,-3.14159265358979,                  93P    140
-3.14159265358979,-1.5707963267949,-1.5707963267949,0.,0.,            93P    141
1.5707963267949,1.5707963267949,3.14159265358979,                     93P    142
3.14159265358979,3.14159265358979,1.,0.707106781186542,1.,            93P    143
0.707106781186542,1.,0.707106781186542,1.,0.707106781186542,1.,       93P    144
1.60000733470977,-93.4838863120693,100.2,1.60000733470977,            93P    145
-91.8838863120693,100.2,7.33470976399531D-6,-91.8838863120693,        93P    146
100.2,-1.59999266529024,-91.8838863120693,100.2,                      93P    147
-1.59999266529024,-93.4838863120693,100.2,-1.59999266529024,          93P    148
-95.0838863120693,100.2,7.33470976399531D-6,-95.0838863120693,        93P    149
100.2,1.60000733470977,-95.0838863120693,100.2,1.60000733470977,      93P    150
-93.4838863120693,100.2,-3.14159265358979,3.14159265358979,0.,        93P    151
0.,0.;                                                                93P    152
126,1,1,0,0,1,0,-36.28,-36.28,2.19999999999999,2.19999999999999,      95P    153
1.,1.,2.50000733470978,-93.4838863120693,196.4,2.50000733470978,      95P    154
-93.4838863120693,100.2,-36.28,2.19999999999999,0.,0.,0.;             95P    155
126,1,1,0,0,1,0,0.,0.,83.2,83.2,1.,1.,-2.49999266529022,              97P    156
-93.4838863120693,113.2,-2.49999266529022,-93.4838863120693,          97P    157
196.4,0.,83.2,0.,0.,0.;                                               97P    158
126,1,1,0,0,1,0,0.,0.,83.2,83.2,1.,1.,1.60000733470977,               99P    159
-93.4838863120693,113.2,1.60000733470977,-93.4838863120693,           99P    160
196.4,0.,83.2,0.,0.,0.;                                               99P    161
126,1,1,0,0,1,0,-12.4550852400154,-12.4550852400154,                 101P    162
-4.33008524001539,-4.33008524001539,1.,1.,1.60000733470977,          101P    163
-93.4838863120693,113.2,1.60000733470977,-93.4838863120693,          101P    164
100.2,-12.4550852400154,-4.33008524001539,0.,0.,0.;                  101P    165
126,8,2,0,1,0,0,0.,0.,0.,1.5707963267949,1.5707963267949,            103P    166
3.14159265358979,3.14159265358979,4.71238898038469,                  103P    167
4.71238898038469,6.28318530717959,6.28318530717959,                  103P    168
6.28318530717959,1.,0.707106781186548,1.,0.707106781186548,1.,       103P    169
0.707106781186548,1.,0.707106781186548,1.,96.5000073281531,          103P    170
-2.02139009936158D-5,196.2,96.5000073281531,2.49997978609901,        103P    171
196.2,94.0000073281531,2.49997978609901,196.2,91.5000073281531,      103P    172
2.49997978609901,196.2,91.5000073281531,-2.02139009933096D-5,        103P    173
196.2,91.5000073281531,-2.50002021390099,196.2,94.0000073281531,     103P    174
-2.50002021390099,196.2,96.5000073281531,-2.50002021390099,          103P    175
196.2,96.5000073281531,-2.02139009942281D-5,196.2,0.,                103P    176
6.28318530717959,0.,0.,0.;                                           103P    177
126,8,2,0,1,0,0,-3.14159265358979,-3.14159265358979,                 105P    178
-3.14159265358979,-1.57079632679489,-1.57079632679489,               105P    179
6.21724893790088D-15,6.21724893790088D-15,1.5707963267949,           105P    180
1.5707963267949,3.1415926535898,3.1415926535898,3.1415926535898,     105P    181
1.,0.707106781186538,1.,0.707106781186545,1.,0.707106781186538,      105P    182
1.,0.707106781186545,1.,92.4000073281531,-2.02139009866686D-5,       105P    183
196.2,92.4000073281531,1.59997978609901,196.2,94.0000073281531,      105P    184
1.599979786099,196.2,95.6000073281531,1.59997978609899,196.2,        105P    185
95.6000073281531,-2.02139010067597D-5,196.2,95.6000073281531,        105P    186
-1.60002021390101,196.2,94.0000073281531,-1.600020213901,196.2,      105P    187
92.4000073281531,-1.60002021390099,196.2,92.4000073281531,           105P    188
-2.02139009870604D-5,196.2,-3.14159265358979,3.1415926535898,0.,     105P    189
0.,0.;                                                               105P    190
126,8,2,0,1,0,0,-6.28318530717959,-6.28318530717959,                 107P    191
-6.28318530717959,-4.71238898038469,-4.71238898038469,               107P    192
-3.14159265358979,-3.14159265358979,-1.5707963267949,                107P    193
-1.5707963267949,0.,0.,0.,1.,0.707106781186548,1.,                   107P    194
0.707106781186548,1.,0.707106781186548,1.,0.707106781186548,1.,      107P    195
96.5000073281531,-2.02139009930034D-5,100.2,96.5000073281531,        107P    196
2.49997978609901,100.2,94.0000073281531,2.49997978609901,100.2,      107P    197
91.5000073281531,2.49997978609901,100.2,91.5000073281531,            107P    198
-2.02139009939219D-5,100.2,91.5000073281531,-2.50002021390099,       107P    199
100.2,94.0000073281531,-2.50002021390099,100.2,96.5000073281531,     107P    200
-2.50002021390099,100.2,96.5000073281531,-2.02139009936158D-5,       107P    201
100.2,-6.28318530717959,0.,0.,0.,0.;                                 107P    202
126,8,2,0,1,0,0,-3.14159265358979,-3.14159265358979,                 109P    203
-3.14159265358979,-1.5707963267949,-1.5707963267949,                 109P    204
-8.88178419700125D-16,-8.88178419700125D-16,1.5707963267949,         109P    205
1.5707963267949,3.14159265358979,3.14159265358979,                   109P    206
3.14159265358979,1.,0.707106781186542,1.,0.707106781186542,1.,       109P    207
0.707106781186542,1.,0.707106781186541,1.,92.4000073281531,          109P    208
-2.02139009862806D-5,100.2,92.4000073281531,1.59997978609901,        109P    209
100.2,94.0000073281531,1.59997978609902,100.2,95.6000073281531,      109P    210
1.59997978609902,100.2,95.6000073281531,-2.02139009836344D-5,        109P    211
100.2,95.6000073281531,-1.60002021390098,100.2,94.0000073281531,     109P    212
-1.60002021390099,100.2,92.4000073281531,-1.60002021390099,          109P    213
100.2,92.4000073281531,-2.02139009866725D-5,100.2,                   109P    214
-3.14159265358979,3.14159265358979,0.,0.,0.;                         109P    215
126,1,1,0,0,1,0,17.0000000000002,17.0000000000002,113.,113.,1.,      111P    216
1.,96.5000073281531,-2.02139009936158D-5,100.2,96.5000073281531,     111P    217
-2.02139009936158D-5,196.2,17.0000000000002,113.,0.,0.,0.;           111P    218
126,1,1,0,0,1,0,17.0000000000002,17.0000000000002,113.,113.,1.,      113P    219
1.,92.4000073281531,-2.02139009865103D-5,100.2,92.4000073281531,     113P    220
-2.02139009865103D-5,196.2,17.0000000000002,113.,0.,0.,0.;           113P    221
128,1,1,1,1,0,0,1,0,0,-2.50100000000002,-2.50100000000002,           115P    222
2.50099999999998,2.50099999999998,-2.501,-2.501,2.501,2.501,1.,      115P    223
1.,1.,1.,-91.4989926586631,2.50097978609901,196.2,                   115P    224
-96.5009926586631,2.50097978609901,196.2,-91.4989926586631,          115P    225
-2.50102021390099,196.2,-96.5009926586631,-2.50102021390099,         115P    226
196.2,-2.50100000000002,2.50099999999998,-2.501,2.501;               115P    227
128,1,1,1,1,0,0,1,0,0,-2.501,-2.501,2.501,2.501,-2.501,-2.501,       117P    228
2.501,2.501,1.,1.,1.,1.,-96.5009926586631,2.50097978609901,          117P    229
100.2,-91.4989926586631,2.50097978609901,100.2,                      117P    230
-96.5009926586631,-2.50102021390099,100.2,-91.4989926586631,         117P    231
-2.50102021390099,100.2,-2.501,2.501,-2.501,2.501;                   117P    232
128,1,8,1,2,0,1,0,0,1,9.80000000000008,9.80000000000008,48.2,        119P    233
48.2,-3.14159265358979,-3.14159265358979,-3.14159265358979,          119P    234
-1.5707963267949,-1.5707963267949,0.,0.,1.5707963267949,             119P    235
1.5707963267949,3.14159265358979,3.14159265358979,                   119P    236
3.14159265358979,1.,1.,0.707106781186548,0.707106781186548,1.,       119P    237
1.,0.707106781186548,0.707106781186548,1.,1.,0.707106781186548,      119P    238
0.707106781186548,1.,1.,0.707106781186548,0.707106781186548,1.,      119P    239
1.,-91.4999926586631,-2.02139009936158D-5,196.2,                     119P    240
-91.4999926586631,-2.02139009936158D-5,100.2,-91.4999926586631,      119P    241
2.49997978609901,196.2,-91.4999926586631,2.49997978609901,100.2,     119P    242
-93.9999926586631,2.49997978609901,196.2,-93.9999926586631,          119P    243
2.49997978609901,100.2,-96.4999926586631,2.49997978609901,196.2,     119P    244
-96.4999926586631,2.49997978609901,100.2,-96.4999926586631,          119P    245
-2.02139009936158D-5,196.2,-96.4999926586631,                        119P    246
-2.02139009936158D-5,100.2,-96.4999926586631,-2.50002021390099,      119P    247
196.2,-96.4999926586631,-2.50002021390099,100.2,                     119P    248
-93.9999926586631,-2.50002021390099,196.2,-93.9999926586631,         119P    249
-2.50002021390099,100.2,-91.4999926586631,-2.50002021390099,         119P    250
196.2,-91.4999926586631,-2.50002021390099,100.2,                     119P    251
-91.4999926586631,-2.02139009936158D-5,196.2,-91.4999926586631,      119P    252
-2.02139009936158D-5,100.2,9.80000000000008,48.2,                    119P    253
-3.14159265358979,3.14159265358979;                                  119P    254
128,1,8,1,2,0,1,0,0,1,-83.0800852400154,-83.0800852400154,           121P    255
-23.0800852400155,-23.0800852400155,-3.14159265358979,               121P    256
-3.14159265358979,-3.14159265358979,-1.5707963267949,                121P    257
-1.5707963267949,0.,0.,1.5707963267949,1.5707963267949,              121P    258
3.14159265358979,3.14159265358979,3.14159265358979,1.,1.,            121P    259
0.707106781186548,0.707106781186548,1.,1.,0.707106781186548,         121P    260
0.707106781186548,1.,1.,0.707106781186548,0.707106781186548,1.,      121P    261
1.,0.707106781186548,0.707106781186548,1.,1.,-92.3999926586631,      121P    262
-2.02139009968121D-5,196.2,-92.3999926586631,                        121P    263
-2.02139009850555D-5,100.2,-92.3999926586631,-1.600020213901,        121P    264
196.2,-92.3999926586631,-1.60002021390099,100.2,                     121P    265
-93.9999926586631,-1.600020213901,196.2,-93.9999926586631,           121P    266
-1.60002021390099,100.2,-95.5999926586631,-1.600020213901,196.2,     121P    267
-95.5999926586631,-1.60002021390099,100.2,-95.5999926586631,         121P    268
-2.02139009968121D-5,196.2,-95.5999926586631,                        121P    269
-2.02139009850555D-5,100.2,-95.5999926586631,1.599979786099,         121P    270
196.2,-95.5999926586631,1.59997978609902,100.2,                      121P    271
-93.9999926586631,1.599979786099,196.2,-93.9999926586631,            121P    272
1.59997978609902,100.2,-92.3999926586631,1.599979786099,196.2,       121P    273
-92.3999926586631,1.59997978609902,100.2,-92.3999926586631,          121P    274
-2.02139009968121D-5,196.2,-92.3999926586631,                        121P    275
-2.02139009850555D-5,100.2,-83.0800852400154,-23.0800852400155,      121P    276
-3.14159265358979,3.14159265358979;                                  121P    277
128,1,1,1,1,0,0,1,0,0,-2.50100000000002,-2.50100000000002,           123P    278
2.50099999999998,2.50099999999998,-2.501,-2.501,2.501,2.501,1.,      123P    279
1.,1.,1.,2.50100733470978,-90.9828863120693,196.4,                   123P    280
-2.50099266529022,-90.9828863120693,196.4,2.50100733470978,          123P    281
-95.9848863120693,196.4,-2.50099266529022,-95.9848863120693,         123P    282
196.4,-2.50100000000002,2.50099999999998,-2.501,2.501;               123P    283
128,1,1,1,1,0,0,1,0,0,-2.501,-2.501,2.501,2.501,-2.501,-2.501,       125P    284
2.501,2.501,1.,1.,1.,1.,-2.50099266529022,-90.9828863120693,         125P    285
100.2,2.50100733470978,-90.9828863120693,100.2,                      125P    286
-2.50099266529022,-95.9848863120693,100.2,2.50100733470978,          125P    287
-95.9848863120693,100.2,-2.501,2.501,-2.501,2.501;                   125P    288
128,1,8,1,2,0,1,0,0,1,-2.19999999999999,-2.19999999999999,36.28,     127P    289
36.28,-3.14159265358979,-3.14159265358979,-3.14159265358979,         127P    290
-1.5707963267949,-1.5707963267949,0.,0.,1.5707963267949,             127P    291
1.5707963267949,3.14159265358979,3.14159265358979,                   127P    292
3.14159265358979,1.,1.,0.707106781186548,0.707106781186548,1.,       127P    293
1.,0.707106781186548,0.707106781186548,1.,1.,0.707106781186548,      127P    294
0.707106781186548,1.,1.,0.707106781186548,0.707106781186548,1.,      127P    295
1.,2.50000733470978,-93.4838863120693,196.4,2.50000733470978,        127P    296
-93.4838863120693,100.2,2.50000733470978,-90.9838863120693,          127P    297
196.4,2.50000733470978,-90.9838863120693,100.2,                      127P    298
7.33470977820616D-6,-90.9838863120693,196.4,7.33470977820616D-6,     127P    299
-90.9838863120693,100.2,-2.49999266529022,-90.9838863120693,         127P    300
196.4,-2.49999266529022,-90.9838863120693,100.2,                     127P    301
-2.49999266529022,-93.4838863120693,196.4,-2.49999266529022,         127P    302
-93.4838863120693,100.2,-2.49999266529022,-95.9838863120693,         127P    303
196.4,-2.49999266529022,-95.9838863120693,100.2,                     127P    304
7.33470977820616D-6,-95.9838863120693,196.4,7.33470977820616D-6,     127P    305
-95.9838863120693,100.2,2.50000733470978,-95.9838863120693,          127P    306
196.4,2.50000733470978,-95.9838863120693,100.2,2.50000733470978,     127P    307
-93.4838863120693,196.4,2.50000733470978,-93.4838863120693,          127P    308
100.2,-2.19999999999999,36.28,-3.14159265358979,                     127P    309
3.14159265358979;                                                    127P    310
128,1,8,1,2,0,1,0,0,1,-64.4550852400154,-64.4550852400154,           129P    311
-4.33008524001539,-4.33008524001539,-3.14159265358979,               129P    312
-3.14159265358979,-3.14159265358979,-1.5707963267949,                129P    313
-1.5707963267949,0.,0.,1.5707963267949,1.5707963267949,              129P    314
3.14159265358979,3.14159265358979,3.14159265358979,1.,1.,            129P    315
0.707106781186548,0.707106781186548,1.,1.,0.707106781186548,         129P    316
0.707106781186548,1.,1.,0.707106781186548,0.707106781186548,1.,      129P    317
1.,0.707106781186548,0.707106781186548,1.,1.,1.60000733470977,       129P    318
-93.4838863120693,196.4,1.60000733470977,-93.4838863120693,          129P    319
100.2,1.60000733470977,-95.0838863120693,196.4,1.60000733470977,     129P    320
-95.0838863120693,100.2,7.33470976399531D-6,-95.0838863120693,       129P    321
196.4,7.33470976399531D-6,-95.0838863120693,100.2,                   129P    322
-1.59999266529024,-95.0838863120693,196.4,-1.59999266529024,         129P    323
-95.0838863120693,100.2,-1.59999266529024,-93.4838863120693,         129P    324
196.4,-1.59999266529024,-93.4838863120693,100.2,                     129P    325
-1.59999266529024,-91.8838863120693,196.4,-1.59999266529024,         129P    326
-91.8838863120693,100.2,7.33470976399531D-6,-91.8838863120693,       129P    327
196.4,7.33470976399531D-6,-91.8838863120693,100.2,                   129P    328
1.60000733470977,-91.8838863120693,196.4,1.60000733470977,           129P    329
-91.8838863120693,100.2,1.60000733470977,-93.4838863120693,          129P    330
196.4,1.60000733470977,-93.4838863120693,100.2,                      129P    331
-64.4550852400154,-4.33008524001539,-3.14159265358979,               129P    332
3.14159265358979;                                                    129P    333
128,1,1,1,1,0,0,1,0,0,-2.50099999999998,-2.50099999999998,           131P    334
2.50100000000002,2.50100000000002,-2.501,-2.501,2.501,2.501,1.,      131P    335
1.,1.,1.,96.5010073281531,2.50097978609901,196.2,                    131P    336
91.4990073281531,2.50097978609901,196.2,96.5010073281531,            131P    337
-2.50102021390099,196.2,91.4990073281531,-2.50102021390099,          131P    338
196.2,-2.50099999999998,2.50100000000002,-2.501,2.501;               131P    339
128,1,1,1,1,0,0,1,0,0,-2.501,-2.501,2.501,2.501,-2.501,-2.501,       133P    340
2.501,2.501,1.,1.,1.,1.,91.4990073281531,2.50097978609901,100.2,     133P    341
96.5010073281531,2.50097978609901,100.2,91.4990073281531,            133P    342
-2.50102021390099,100.2,96.5010073281531,-2.50102021390099,          133P    343
100.2,-2.501,2.501,-2.501,2.501;                                     133P    344
128,1,8,1,2,0,1,0,0,1,9.80000000000008,9.80000000000008,48.2,        135P    345
48.2,-3.14159265358979,-3.14159265358979,-3.14159265358979,          135P    346
-1.5707963267949,-1.5707963267949,0.,0.,1.5707963267949,             135P    347
1.5707963267949,3.14159265358979,3.14159265358979,                   135P    348
3.14159265358979,1.,1.,0.707106781186548,0.707106781186548,1.,       135P    349
1.,0.707106781186548,0.707106781186548,1.,1.,0.707106781186548,      135P    350
0.707106781186548,1.,1.,0.707106781186548,0.707106781186548,1.,      135P    351
1.,91.5000073281531,-2.02139009936158D-5,100.2,91.5000073281531,     135P    352
-2.02139009936158D-5,196.2,91.5000073281531,2.49997978609901,        135P    353
100.2,91.5000073281531,2.49997978609901,196.2,94.0000073281531,      135P    354
2.49997978609901,100.2,94.0000073281531,2.49997978609901,196.2,      135P    355
96.5000073281531,2.49997978609901,100.2,96.5000073281531,            135P    356
2.49997978609901,196.2,96.5000073281531,-2.02139009936158D-5,        135P    357
100.2,96.5000073281531,-2.02139009936158D-5,196.2,                   135P    358
96.5000073281531,-2.50002021390099,100.2,96.5000073281531,           135P    359
-2.50002021390099,196.2,94.0000073281531,-2.50002021390099,          135P    360
100.2,94.0000073281531,-2.50002021390099,196.2,91.5000073281531,     135P    361
-2.50002021390099,100.2,91.5000073281531,-2.50002021390099,          135P    362
196.2,91.5000073281531,-2.02139009936158D-5,100.2,                   135P    363
91.5000073281531,-2.02139009936158D-5,196.2,9.80000000000008,        135P    364
48.2,-3.14159265358979,3.14159265358979;                             135P    365
128,1,8,1,2,0,1,0,0,1,-83.0800852400154,-83.0800852400154,           137P    366
-23.0800852400155,-23.0800852400155,-3.14159265358979,               137P    367
-3.14159265358979,-3.14159265358979,-1.5707963267949,                137P    368
-1.5707963267949,0.,0.,1.5707963267949,1.5707963267949,              137P    369
3.14159265358979,3.14159265358979,3.14159265358979,1.,1.,            137P    370
0.707106781186548,0.707106781186548,1.,1.,0.707106781186548,         137P    371
0.707106781186548,1.,1.,0.707106781186548,0.707106781186548,1.,      137P    372
1.,0.707106781186548,0.707106781186548,1.,1.,92.4000073281531,       137P    373
-2.02139009850555D-5,100.2,92.4000073281531,                         137P    374
-2.02139009968121D-5,196.2,92.4000073281531,-1.60002021390099,       137P    375
100.2,92.4000073281531,-1.600020213901,196.2,94.0000073281531,       137P    376
-1.60002021390099,100.2,94.0000073281531,-1.600020213901,196.2,      137P    377
95.6000073281531,-1.60002021390099,100.2,95.6000073281531,           137P    378
-1.600020213901,196.2,95.6000073281531,-2.02139009850555D-5,         137P    379
100.2,95.6000073281531,-2.02139009968121D-5,196.2,                   137P    380
95.6000073281531,1.59997978609902,100.2,95.6000073281531,            137P    381
1.599979786099,196.2,94.0000073281531,1.59997978609902,100.2,        137P    382
94.0000073281531,1.599979786099,196.2,92.4000073281531,              137P    383
1.59997978609902,100.2,92.4000073281531,1.599979786099,196.2,        137P    384
92.4000073281531,-2.02139009850555D-5,100.2,92.4000073281531,        137P    385
-2.02139009968121D-5,196.2,-83.0800852400154,-23.0800852400155,      137P    386
-3.14159265358979,3.14159265358979;                                  137P    387
502,4,-96.4999926586631,-2.02139009936158D-5,196.2,                  139P    388
-92.3999926586631,-2.02139009865103D-5,196.2,-96.4999926586631,      139P    389
-2.02139009936158D-5,100.2,-92.3999926586631,                        139P    390
-2.02139009865103D-5,100.2;                                          139P    391
502,7,-2.49999266529022,-93.4838863120693,196.4,                     141P    392
2.50000733470978,-93.4838863120693,196.4,1.60000733470977,           141P    393
-93.4838863120693,196.4,2.50000733470978,-93.4838863120693,          141P    394
100.2,1.60000733470977,-93.4838863120693,100.2,                      141P    395
-2.49999266529022,-93.4838863120693,113.2,1.60000733470977,          141P    396
-93.4838863120693,113.2;                                             141P    397
502,4,96.5000073281531,-2.02139009936158D-5,196.2,                   143P    398
92.4000073281531,-2.02139009865103D-5,196.2,96.5000073281531,        143P    399
-2.02139009936158D-5,100.2,92.4000073281531,                         143P    400
-2.02139009865103D-5,100.2;                                          143P    401
504,6,73,139,1,139,1,75,139,2,139,2,77,139,3,139,3,79,139,4,139,     145P    402
4,81,139,3,139,1,83,139,4,139,2;                                     145P    403
504,9,85,141,1,141,2,87,141,2,141,1,89,141,3,141,3,91,141,4,141,     147P    404
4,93,141,5,141,5,95,141,2,141,4,97,141,6,141,1,99,141,7,141,3,       147P    405
101,141,7,141,5;                                                     147P    406
504,6,103,143,1,143,1,105,143,2,143,2,107,143,3,143,3,109,143,4,     149P    407
143,4,111,143,3,143,1,113,143,4,143,2;                               149P    408
406,1,2H73;                                                          151P    409
406,1,2H77;                                                          153P    410
406,1,2H78;                                                          155P    411
406,2,0,18HLayer 3 to 4 Stand;                                       157P    412
314,76.078431372549,80.7843137254902,83.921568627451,;               159P    413
314,100.,100.,100.,;                                                 161P    414
S      1G      3D    162P    414                                        T      1
