                                                                        S      1
,,,14Hmirrortolayer4,22HAutoCAD 2022 - English,62HAutodesk Translation FG      1
ramework DWG producer (atf_dwg_producer),32,38,7,99,15,,1.,2,2HMM,1,    G      2
0.08,15H20220224.235435,0.01,10000.,,7Hunknown,11,0,15H20210411.131402; G      3
     186       1                       1                        00000000D      1
     186             -61       1       0                               0D      2
     514       2                                                00010000D      3
     514                       1       1                               0D      4
     510       3                                                00010000D      5
     510             -61       1       1                               0D      6
     510       4                                                00010000D      7
     510             -61       1       1                               0D      8
     510       5                                                00010000D      9
     510             -61       1       1                               0D     10
     510       6                                                00010000D     11
     510             -61       1       1                               0D     12
     508       7                                                00010000D     13
     508                       1       1                               0D     14
     508       8                                                00010000D     15
     508                       1       1                               0D     16
     508       9                                                00010000D     17
     508                       1       1                               0D     18
     508      10                                                00010000D     19
     508                       1       1                               0D     20
     508      11                                                00010000D     21
     508                       2       1                               0D     22
     508      13                                                00010000D     23
     508                       2       1                               0D     24
     126      15                                                00010000D     25
     126       0               9       0                               0D     26
     126      24                                                00010000D     27
     126       0               7       0                               0D     28
     126      31                                                00010000D     29
     126       0              13       0                               0D     30
     126      44                                                00010000D     31
     126       0              15       0                               0D     32
     126      59                                                00010000D     33
     126       0              15       0                               0D     34
     126      74                                                00010000D     35
     126       0               5       0                               0D     36
     126      79                                                00010000D     37
     126       0               4       0                               0D     38
     126      83                                                00010000D     39
     126       0               4       0                               0D     40
     126      87                                                00010000D     41
     126       0               5       0                               0D     42
     128      92                                                00010000D     43
     128       0     -61       6       0                               0D     44
     128      98                                                00010000D     45
     128       0     -61       6       0                               0D     46
     128     104                                                00010000D     47
     128       0     -61      25       0                               0D     48
     128     129                                                00010000D     49
     128       0     -61      25       0                               0D     50
     502     154                                                00010000D     51
     502                       7       1                               0D     52
     504     161                                                00010001D     53
     504                       2       1                               0D     54
     406     163                                                00000000D     55
     406                       1      15                               0D     56
     406     164                       1                        00000000D     57
     406             -59       1       3                               0D     58
     314     165                                                00000200D     59
     314                       1       0                               0D     60
     314     166                                                00000200D     61
     314                       1       0                               0D     62
186,3,1,0,0,1,55;                                                      1P      1
514,4,5,1,7,1,9,1,11,1;                                                3P      2
510,43,2,1,13,15;                                                      5P      3
510,45,2,1,17,19;                                                      7P      4
510,47,1,1,21;                                                         9P      5
510,49,1,1,23;                                                        11P      6
508,2,0,53,1,0,0,0,53,2,0,0;                                          13P      7
508,1,0,53,3,0,0;                                                     15P      8
508,1,0,53,4,1,0;                                                     17P      9
508,1,0,53,5,1,0;                                                     19P     10
508,7,0,53,1,1,0,0,53,6,1,0,0,53,4,0,0,0,53,6,0,0,0,53,2,1,0,0,       21P     11
53,7,0,0,0,53,7,1,0;                                                  21P     12
508,6,0,53,3,1,0,0,53,8,0,0,0,53,9,1,0,0,53,5,0,0,0,53,9,0,0,0,       23P     13
53,8,1,0;                                                             23P     14
126,4,2,0,0,0,0,-6.28318530717959,-6.28318530717959,                  25P     15
-6.28318530717959,-4.71238898038469,-4.71238898038469,                25P     16
-3.14159265358979,-3.14159265358979,-3.14159265358979,1.,             25P     17
0.707106781186548,1.,0.707106781186548,1.,-2.50000000002777,          25P     18
2.79107309840563D-11,199.8,-2.50000000002777,2.50000000002791,        25P     19
199.8,-2.77680101135047D-11,2.50000000002791,199.8,                   25P     20
2.49999999997223,2.50000000002791,199.8,2.49999999997223,             25P     21
2.7909812498957D-11,199.8,-6.28318530717959,-3.14159265358979,        25P     22
0.,0.,0.;                                                             25P     23
126,4,2,0,0,0,0,-3.14159265358979,-3.14159265358979,                  27P     24
-3.14159265358979,-1.5707963267949,-1.5707963267949,0.,0.,0.,1.,      27P     25
0.707106781186548,1.,0.707106781186548,1.,2.49999999997223,           27P     26
2.7909812498957D-11,199.8,2.49999999997223,-2.49999999997209,         27P     27
199.8,-2.77680101135047D-11,-2.49999999997209,199.8,                  27P     28
-2.50000000002777,-2.49999999997209,199.8,-2.50000000002777,          27P     29
2.79101186606567D-11,199.8,-3.14159265358979,0.,0.,0.,0.;             27P     30
126,8,2,0,1,0,0,-3.14159265358979,-3.14159265358979,                  29P     31
-3.14159265358979,-1.57079632679489,-1.57079632679489,                29P     32
5.77315972805081D-15,5.77315972805081D-15,1.5707963267949,            29P     33
1.5707963267949,3.1415926535898,3.1415926535898,3.1415926535898,      29P     34
1.,0.707106781186538,1.,0.707106781186546,1.,0.707106781186538,       29P     35
1.,0.707106781186545,1.,1.59999999997222,2.79292755359253D-11,        29P     36
199.8,1.59999999997221,1.60000000002793,199.8,                        29P     37
-2.77893263955775D-11,1.60000000002792,199.8,-1.60000000002779,       29P     38
1.60000000002791,199.8,-1.60000000002778,2.79106054813077D-11,        29P     39
199.8,-1.60000000002778,-1.59999999997209,199.8,                      29P     40
-2.77751155408623D-11,-1.59999999997208,199.8,1.59999999997223,       29P     41
-1.59999999997207,199.8,1.59999999997222,2.79288836489496D-11,        29P     42
199.8,-3.14159265358979,3.1415926535898,0.,0.,0.;                     29P     43
126,8,2,0,1,0,0,-3.14159265358979,-3.14159265358979,                  31P     44
-3.14159265358979,-1.5707963267949,-1.5707963267949,0.,0.,            31P     45
1.5707963267949,1.5707963267949,3.14159265358979,                     31P     46
3.14159265358979,3.14159265358979,1.,0.707106781186548,1.,            31P     47
0.707106781186548,1.,0.707106781186548,1.,0.707106781186548,1.,       31P     48
2.49999999997223,2.7909812498957D-11,179.301560345897,                31P     49
2.49999999997223,-2.49999999997209,179.301560345897,                  31P     50
-2.77680101135047D-11,-2.49999999997209,179.301560345897,             31P     51
-2.50000000002777,-2.49999999997209,179.301560345897,                 31P     52
-2.50000000002777,2.79101186606567D-11,179.301560345897,              31P     53
-2.50000000002777,2.50000000002791,179.301560345897,                  31P     54
-2.77680101135047D-11,2.50000000002791,179.301560345897,              31P     55
2.49999999997223,2.50000000002791,179.301560345897,                   31P     56
2.49999999997223,2.79104248223565D-11,179.301560345897,               31P     57
-3.14159265358979,3.14159265358979,0.,0.,0.;                          31P     58
126,8,2,0,1,0,0,-3.14159265358979,-3.14159265358979,                  33P     59
-3.14159265358979,-1.5707963267949,-1.5707963267949,0.,0.,            33P     60
1.5707963267949,1.5707963267949,3.14159265358979,                     33P     61
3.14159265358979,3.14159265358979,1.,0.707106781186542,1.,            33P     62
0.707106781186542,1.,0.707106781186542,1.,0.707106781186542,1.,       33P     63
1.59999999997222,2.79225488152115D-11,179.301560345897,               33P     64
1.59999999997222,1.60000000002792,179.301560345897,                   33P     65
-2.77822209682199D-11,1.60000000002792,179.301560345897,              33P     66
-1.60000000002778,1.60000000002792,179.301560345897,                  33P     67
-1.60000000002778,2.79223528717236D-11,179.301560345897,              33P     68
-1.60000000002778,-1.59999999997208,179.301560345897,                 33P     69
-2.77822209682199D-11,-1.59999999997208,179.301560345897,             33P     70
1.59999999997222,-1.59999999997208,179.301560345897,                  33P     71
1.59999999997222,2.79221569282357D-11,179.301560345897,               33P     72
-3.14159265358979,3.14159265358979,0.,0.,0.;                          33P     73
126,1,1,0,0,1,0,-5.99937586164133,-5.99937586164133,                  35P     74
2.19999999999999,2.19999999999999,1.,1.,2.49999999997223,             35P     75
2.79101186606567D-11,199.8,2.49999999997223,                          35P     76
2.79101186606567D-11,179.301560345897,-5.99937586164133,              35P     77
2.19999999999999,0.,0.,0.;                                            35P     78
126,1,1,0,0,1,0,0.,0.,7.49843965410334,7.49843965410334,1.,1.,        37P     79
-2.50000000002777,2.79101186606567D-11,192.301560345897,              37P     80
-2.50000000002777,2.79101186606567D-11,199.8,0.,                      37P     81
7.49843965410334,0.,0.,0.;                                            37P     82
126,1,1,0,0,1,0,0.,0.,7.49843965410334,7.49843965410334,1.,1.,        39P     83
1.59999999997222,2.79172240880143D-11,192.301560345897,               39P     84
1.59999999997222,2.79172240880143D-11,199.8,0.,7.49843965410334,      39P     85
0.,0.,0.;                                                             39P     86
126,1,1,0,0,1,0,-12.4550852400154,-12.4550852400154,                  41P     87
-4.33008524001539,-4.33008524001539,1.,1.,1.59999999997222,           41P     88
2.79205648873968D-11,192.301560345897,1.59999999997222,               41P     89
2.79223528717236D-11,179.301560345897,-12.4550852400154,              41P     90
-4.33008524001539,0.,0.,0.;                                           41P     91
128,1,1,1,1,0,0,1,0,0,-2.50100000000002,-2.50100000000002,            43P     92
2.50099999999998,2.50099999999998,-2.501,-2.501,2.501,2.501,1.,       43P     93
1.,1.,1.,2.50099999997223,2.50100000002791,199.8,                     43P     94
-2.50100000002777,2.50100000002791,199.8,2.50099999997223,            43P     95
-2.50099999997209,199.8,-2.50100000002777,-2.50099999997209,          43P     96
199.8,-2.50100000000002,2.50099999999998,-2.501,2.501;                43P     97
128,1,1,1,1,0,0,1,0,0,-2.501,-2.501,2.501,2.501,-2.501,-2.501,        45P     98
2.501,2.501,1.,1.,1.,1.,-2.50100000002777,2.50100000002791,           45P     99
179.301560345897,2.50099999997223,2.50100000002791,                   45P    100
179.301560345897,-2.50100000002777,-2.50099999997209,                 45P    101
179.301560345897,2.50099999997223,-2.50099999997209,                  45P    102
179.301560345897,-2.501,2.501,-2.501,2.501;                           45P    103
128,1,8,1,2,0,1,0,0,1,-2.19999999999999,-2.19999999999999,            47P    104
5.99937586164133,5.99937586164133,-3.14159265358979,                  47P    105
-3.14159265358979,-3.14159265358979,-1.5707963267949,                 47P    106
-1.5707963267949,0.,0.,1.5707963267949,1.5707963267949,               47P    107
3.14159265358979,3.14159265358979,3.14159265358979,1.,1.,             47P    108
0.707106781186548,0.707106781186548,1.,1.,0.707106781186548,          47P    109
0.707106781186548,1.,1.,0.707106781186548,0.707106781186548,1.,       47P    110
1.,0.707106781186548,0.707106781186548,1.,1.,2.49999999997223,        47P    111
2.79101186606567D-11,199.8,2.49999999997223,                          47P    112
2.79101186606567D-11,179.301560345897,2.49999999997223,               47P    113
2.50000000002791,199.8,2.49999999997223,2.50000000002791,             47P    114
179.301560345897,-2.77680101135047D-11,2.50000000002791,199.8,        47P    115
-2.77680101135047D-11,2.50000000002791,179.301560345897,              47P    116
-2.50000000002777,2.50000000002791,199.8,-2.50000000002777,           47P    117
2.50000000002791,179.301560345897,-2.50000000002777,                  47P    118
2.79101186606567D-11,199.8,-2.50000000002777,                         47P    119
2.79101186606567D-11,179.301560345897,-2.50000000002777,              47P    120
-2.49999999997209,199.8,-2.50000000002777,-2.49999999997209,          47P    121
179.301560345897,-2.77680101135047D-11,-2.49999999997209,199.8,       47P    122
-2.77680101135047D-11,-2.49999999997209,179.301560345897,             47P    123
2.49999999997223,-2.49999999997209,199.8,2.49999999997223,            47P    124
-2.49999999997209,179.301560345897,2.49999999997223,                  47P    125
2.79101186606567D-11,199.8,2.49999999997223,                          47P    126
2.79101186606567D-11,179.301560345897,-2.19999999999999,              47P    127
5.99937586164133,-3.14159265358979,3.14159265358979;                  47P    128
128,1,8,1,2,0,1,0,0,1,-17.1416100238299,-17.1416100238299,            49P    129
-4.33008524001539,-4.33008524001539,-3.14159265358979,                49P    130
-3.14159265358979,-3.14159265358979,-1.5707963267949,                 49P    131
-1.5707963267949,0.,0.,1.5707963267949,1.5707963267949,               49P    132
3.14159265358979,3.14159265358979,3.14159265358979,1.,1.,             49P    133
0.707106781186548,0.707106781186548,1.,1.,0.707106781186548,          49P    134
0.707106781186548,1.,1.,0.707106781186548,0.707106781186548,1.,       49P    135
1.,0.707106781186548,0.707106781186548,1.,1.,1.59999999997222,        49P    136
2.79198425368726D-11,199.8,1.59999999997222,                          49P    137
2.79223528717236D-11,179.301560345897,1.59999999997222,               49P    138
-1.59999999997208,199.8,1.59999999997222,-1.59999999997208,           49P    139
179.301560345897,-2.77822209682199D-11,-1.59999999997208,199.8,       49P    140
-2.77822209682199D-11,-1.59999999997208,179.301560345897,             49P    141
-1.60000000002778,-1.59999999997208,199.8,-1.60000000002778,          49P    142
-1.59999999997208,179.301560345897,-1.60000000002778,                 49P    143
2.79198425368726D-11,199.8,-1.60000000002778,                         49P    144
2.79223528717236D-11,179.301560345897,-1.60000000002778,              49P    145
1.60000000002792,199.8,-1.60000000002778,1.60000000002792,            49P    146
179.301560345897,-2.77822209682199D-11,1.60000000002792,199.8,        49P    147
-2.77822209682199D-11,1.60000000002792,179.301560345897,              49P    148
1.59999999997222,1.60000000002792,199.8,1.59999999997222,             49P    149
1.60000000002792,179.301560345897,1.59999999997222,                   49P    150
2.79198425368726D-11,199.8,1.59999999997222,                          49P    151
2.79223528717236D-11,179.301560345897,-17.1416100238299,              49P    152
-4.33008524001539,-3.14159265358979,3.14159265358979;                 49P    153
502,7,-2.50000000002777,2.79101186606567D-11,199.8,                   51P    154
2.49999999997223,2.79101186606567D-11,199.8,1.59999999997222,         51P    155
2.79200384803605D-11,199.8,2.49999999997223,2.7909812498957D-11,      51P    156
179.301560345897,1.59999999997222,2.79221569282357D-11,               51P    157
179.301560345897,-2.50000000002777,2.79101186606567D-11,              51P    158
192.301560345897,1.59999999997222,2.79205648873968D-11,               51P    159
192.301560345897;                                                     51P    160
504,9,25,51,1,51,2,27,51,2,51,1,29,51,3,51,3,31,51,4,51,4,33,51,      53P    161
5,51,5,35,51,2,51,4,37,51,6,51,1,39,51,7,51,3,41,51,7,51,5;           53P    162
406,1,2H73;                                                           55P    163
406,2,0,18HLayer 3 to 4 Stand;                                        57P    164
314,76.078431372549,80.7843137254902,83.921568627451,;                59P    165
314,100.,100.,100.,;                                                  61P    166
S      1G      3D     62P    166                                        T      1
