                                                                        S      1
,,,6Hwasher,22HAutoCAD 2022 - English,62HAutodesk Translation Framework G      1
DWG producer (atf_dwg_producer),32,38,7,99,15,,1.,2,2HMM,1,0.08,15H20220G      2
308.212336,0.01,10000.,,7Hunknown,11,0,15H20220226.190018;              G      3
     186       1                       1                        00000000D      1
     186             -55       1       0                               0D      2
     514       2                                                00010000D      3
     514                       1       1                               0D      4
     510       3                                                00010000D      5
     510             -55       1       1                               0D      6
     510       4                                                00010000D      7
     510             -55       1       1                               0D      8
     510       5                                                00010000D      9
     510             -55       1       1                               0D     10
     510       6                                                00010000D     11
     510             -55       1       1                               0D     12
     508       7                                                00010000D     13
     508                       1       1                               0D     14
     508       8                                                00010000D     15
     508                       1       1                               0D     16
     508       9                                                00010000D     17
     508                       1       1                               0D     18
     508      10                                                00010000D     19
     508                       1       1                               0D     20
     508      11                                                00010000D     21
     508                       1       1                               0D     22
     508      12                                                00010000D     23
     508                       1       1                               0D     24
     126      13                                                00010000D     25
     126       0              15       0                               0D     26
     126      28                                                00010000D     27
     126       0               4       0                               0D     28
     126      32                                                00010000D     29
     126       0              15       0                               0D     30
     126      47                                                00010000D     31
     126       0              15       0                               0D     32
     126      62                                                00010000D     33
     126       0               4       0                               0D     34
     126      66                                                00010000D     35
     126       0              15       0                               0D     36
     128      81                                                00010000D     37
     128       0     -55      26       0                               0D     38
     128     107                                                00010000D     39
     128       0     -55      26       0                               0D     40
     128     133                                                00010000D     41
     128       0     -55       6       0                               0D     42
     128     139                                                00010000D     43
     128       0     -55       6       0                               0D     44
     502     145                                                00010000D     45
     502                       4       1                               0D     46
     504     149                                                00010001D     47
     504                       2       1                               0D     48
     406     151                                                00000000D     49
     406                       1      15                               0D     50
     406     152                       1                        00000000D     51
     406             -53       1       3                               0D     52
     314     153                                                00000200D     53
     314                       1       0                               0D     54
     314     154                                                00000200D     55
     314                       1       0                               0D     56
186,3,1,0,0,1,49;                                                      1P      1
514,4,5,1,7,1,9,1,11,1;                                                3P      2
510,37,1,1,13;                                                         5P      3
510,39,1,1,15;                                                         7P      4
510,41,2,1,17,19;                                                      9P      5
510,43,2,1,21,23;                                                     11P      6
508,4,0,47,1,1,0,0,47,2,1,0,0,47,3,0,0,0,47,2,0,0;                    13P      7
508,4,0,47,4,0,0,0,47,5,1,0,0,47,6,1,0,0,47,5,0,0;                    15P      8
508,1,0,47,4,1,0;                                                     17P      9
508,1,0,47,3,1,0;                                                     19P     10
508,1,0,47,6,0,0;                                                     21P     11
508,1,0,47,1,0,0;                                                     23P     12
126,8,2,0,1,0,0,-3.14159265358979,-3.14159265358979,                  25P     13
-3.14159265358979,-1.5707963267949,-1.5707963267949,0.,0.,            25P     14
1.5707963267949,1.5707963267949,3.14159265358979,                     25P     15
3.14159265358979,3.14159265358979,1.,0.707106781186548,1.,            25P     16
0.707106781186548,1.,0.707106781186548,1.,0.707106781186548,1.,       25P     17
-60.0110566148189,59.823834166167,34.199992665228,                    25P     18
-59.8567750703524,58.331789527077,34.199992665228,                    25P     19
-61.3488197094423,58.1775079826105,34.199992665228,                   25P     20
-62.8408643485323,58.023226438144,34.199992665228,                    25P     21
-62.9951458929988,59.515271077234,34.199992665228,                    25P     22
-63.1494274374653,61.0073157163239,34.199992665228,                   25P     23
-61.6573827983753,61.1615972607904,34.199992665228,                   25P     24
-60.1653381592854,61.3158788052569,34.199992665228,                   25P     25
-60.0110566148189,59.823834166167,34.199992665228,                    25P     26
-3.14159265358979,3.14159265358979,0.,0.,0.;                          25P     27
126,1,1,0,0,1,0,0.,0.,0.666666666666664,0.666666666666664,1.,1.,      27P     28
-60.0110566148189,59.823834166167,34.199992665228,                    27P     29
-60.0110566148189,59.823834166167,35.199992665228,0.,                 27P     30
0.666666666666664,0.,0.,0.;                                           27P     31
126,8,2,0,1,0,0,-3.14159265358979,-3.14159265358979,                  29P     32
-3.14159265358979,-1.5707963267949,-1.5707963267949,0.,0.,            29P     33
1.5707963267949,1.5707963267949,3.14159265358979,                     29P     34
3.14159265358979,3.14159265358979,1.,0.707106781186548,1.,            29P     35
0.707106781186548,1.,0.707106781186548,1.,0.707106781186548,1.,       29P     36
-60.0110566148189,59.823834166167,35.199992665228,                    29P     37
-59.8567750703524,58.331789527077,35.199992665228,                    29P     38
-61.3488197094423,58.1775079826105,35.199992665228,                   29P     39
-62.8408643485323,58.023226438144,35.199992665228,                    29P     40
-62.9951458929988,59.5152710772339,35.199992665228,                   29P     41
-63.1494274374653,61.0073157163239,35.199992665228,                   29P     42
-61.6573827983753,61.1615972607904,35.199992665228,                   29P     43
-60.1653381592854,61.3158788052569,35.199992665228,                   29P     44
-60.0110566148189,59.823834166167,35.199992665228,                    29P     45
-3.14159265358979,3.14159265358979,0.,0.,0.;                          29P     46
126,8,2,0,1,0,0,-3.14159265358979,-3.14159265358979,                  31P     47
-3.14159265358979,-1.5707963267949,-1.5707963267949,0.,0.,            31P     48
1.5707963267949,1.5707963267949,3.14159265358979,                     31P     49
3.14159265358979,3.14159265358979,1.,0.707106781186548,1.,            31P     50
0.707106781186548,1.,0.707106781186548,1.,0.707106781186548,1.,       31P     51
-55.5349226975491,60.2866787995666,35.199992665228,                   31P     52
-56.1520488754151,66.2548573559263,35.199992665228,                   31P     53
-62.1202274317749,65.6377311780602,35.199992665228,                   31P     54
-68.0884059881347,65.0206050001942,35.199992665228,                   31P     55
-67.4712798102686,59.0524264438344,35.199992665228,                   31P     56
-66.8541536324025,53.0842478874746,35.1999926652279,                  31P     57
-60.8859750760427,53.7013740653407,35.1999926652279,                  31P     58
-54.917796519683,54.3185002432068,35.1999926652279,                   31P     59
-55.5349226975491,60.2866787995666,35.199992665228,                   31P     60
-3.14159265358979,3.14159265358979,0.,0.,0.;                          31P     61
126,1,1,0,0,1,0,-0.166666666666666,-0.166666666666666,0.,0.,1.,       33P     62
1.,-55.5349226975491,60.2866787995666,35.199992665228,                33P     63
-55.5349226975491,60.2866787995666,34.199992665228,                   33P     64
-0.166666666666666,0.,0.,0.,0.;                                       33P     65
126,8,2,0,1,0,0,-3.14159265358979,-3.14159265358979,                  35P     66
-3.14159265358979,-1.5707963267949,-1.5707963267949,0.,0.,            35P     67
1.5707963267949,1.5707963267949,3.14159265358979,                     35P     68
3.14159265358979,3.14159265358979,1.,0.707106781186548,1.,            35P     69
0.707106781186548,1.,0.707106781186548,1.,0.707106781186548,1.,       35P     70
-55.5349226975491,60.2866787995666,34.199992665228,                   35P     71
-56.1520488754151,66.2548573559263,34.199992665228,                   35P     72
-62.1202274317749,65.6377311780602,34.199992665228,                   35P     73
-68.0884059881347,65.0206050001942,34.199992665228,                   35P     74
-67.4712798102686,59.0524264438344,34.199992665228,                   35P     75
-66.8541536324025,53.0842478874746,34.1999926652279,                  35P     76
-60.8859750760427,53.7013740653407,34.1999926652279,                  35P     77
-54.917796519683,54.3185002432068,34.1999926652279,                   35P     78
-55.5349226975491,60.2866787995666,34.199992665228,                   35P     79
-3.14159265358979,3.14159265358979,0.,0.,0.;                          35P     80
128,1,8,1,2,0,1,0,0,1,0.,0.,0.666666666666667,0.666666666666667,      37P     81
-3.14159265358979,-3.14159265358979,-3.14159265358979,                37P     82
-1.5707963267949,-1.5707963267949,0.,0.,1.5707963267949,              37P     83
1.5707963267949,3.14159265358979,3.14159265358979,                    37P     84
3.14159265358979,1.,1.,0.707106781186548,0.707106781186548,1.,        37P     85
1.,0.707106781186548,0.707106781186548,1.,1.,0.707106781186548,       37P     86
0.707106781186548,1.,1.,0.707106781186548,0.707106781186548,1.,       37P     87
1.,-60.0110566148189,59.823834166167,34.199992665228,                 37P     88
-60.0110566148189,59.823834166167,35.199992665228,                    37P     89
-60.1653381592854,61.3158788052569,34.199992665228,                   37P     90
-60.1653381592854,61.3158788052569,35.199992665228,                   37P     91
-61.6573827983753,61.1615972607904,34.199992665228,                   37P     92
-61.6573827983753,61.1615972607904,35.199992665228,                   37P     93
-63.1494274374653,61.0073157163239,34.199992665228,                   37P     94
-63.1494274374653,61.0073157163239,35.199992665228,                   37P     95
-62.9951458929988,59.515271077234,34.199992665228,                    37P     96
-62.9951458929988,59.5152710772339,35.199992665228,                   37P     97
-62.8408643485322,58.023226438144,34.199992665228,                    37P     98
-62.8408643485323,58.023226438144,35.199992665228,                    37P     99
-61.3488197094423,58.1775079826105,34.199992665228,                   37P    100
-61.3488197094423,58.1775079826105,35.199992665228,                   37P    101
-59.8567750703524,58.331789527077,34.199992665228,                    37P    102
-59.8567750703524,58.331789527077,35.199992665228,                    37P    103
-60.0110566148189,59.823834166167,34.199992665228,                    37P    104
-60.0110566148189,59.823834166167,35.199992665228,0.,                 37P    105
0.666666666666667,-3.14159265358979,3.14159265358979;                 37P    106
128,1,8,1,2,0,1,0,0,1,0.,0.,0.166666666666667,0.166666666666667,      39P    107
-3.14159265358979,-3.14159265358979,-3.14159265358979,                39P    108
-1.5707963267949,-1.5707963267949,0.,0.,1.5707963267949,              39P    109
1.5707963267949,3.14159265358979,3.14159265358979,                    39P    110
3.14159265358979,1.,1.,0.707106781186548,0.707106781186548,1.,        39P    111
1.,0.707106781186548,0.707106781186548,1.,1.,0.707106781186548,       39P    112
0.707106781186548,1.,1.,0.707106781186548,0.707106781186548,1.,       39P    113
1.,-55.5349226975491,60.2866787995666,35.199992665228,                39P    114
-55.5349226975491,60.2866787995666,34.199992665228,                   39P    115
-56.1520488754151,66.2548573559263,35.199992665228,                   39P    116
-56.1520488754151,66.2548573559263,34.199992665228,                   39P    117
-62.1202274317749,65.6377311780602,35.199992665228,                   39P    118
-62.1202274317749,65.6377311780602,34.199992665228,                   39P    119
-68.0884059881347,65.0206050001942,35.199992665228,                   39P    120
-68.0884059881347,65.0206050001942,34.199992665228,                   39P    121
-67.4712798102686,59.0524264438344,35.199992665228,                   39P    122
-67.4712798102686,59.0524264438344,34.199992665228,                   39P    123
-66.8541536324025,53.0842478874746,35.1999926652279,                  39P    124
-66.8541536324025,53.0842478874746,34.1999926652279,                  39P    125
-60.8859750760427,53.7013740653407,35.1999926652279,                  39P    126
-60.8859750760427,53.7013740653407,34.1999926652279,                  39P    127
-54.917796519683,54.3185002432068,35.1999926652279,                   39P    128
-54.917796519683,54.3185002432068,34.1999926652279,                   39P    129
-55.5349226975491,60.2866787995666,35.199992665228,                   39P    130
-55.5349226975491,60.2866787995666,34.199992665228,0.,                39P    131
0.166666666666667,-3.14159265358979,3.14159265358979;                 39P    132
128,1,1,1,1,0,0,1,0,0,-6.001,-6.001,6.001,6.001,-6.001,-6.001,        41P    133
6.001,6.001,1.,1.,1.,1.,-56.1511570333521,66.2559549067154,           41P    134
35.199992665228,-68.0895035389237,65.0214968422572,                   41P    135
35.199992665228,-54.9166989688939,54.3176084011437,                   41P    136
35.1999926652279,-66.8550454744656,53.0831503366856,                  41P    137
35.1999926652279,-6.001,6.001,-6.001,6.001;                           41P    138
128,1,1,1,1,0,0,1,0,0,-6.001,-6.001,6.001,6.001,-6.001,-6.001,        43P    139
6.001,6.001,1.,1.,1.,1.,-68.0895035389237,65.0214968422572,           43P    140
34.199992665228,-56.1511570333521,66.2559549067154,                   43P    141
34.199992665228,-66.8550454744656,53.0831503366856,                   43P    142
34.1999926652279,-54.9166989688939,54.3176084011437,                  43P    143
34.1999926652279,-6.001,6.001,-6.001,6.001;                           43P    144
502,4,-60.0110566148189,59.823834166167,34.199992665228,              45P    145
-60.0110566148189,59.823834166167,35.199992665228,                    45P    146
-55.5349226975491,60.2866787995666,35.199992665228,                   45P    147
-55.5349226975491,60.2866787995666,34.199992665228;                   45P    148
504,6,25,45,1,45,1,27,45,1,45,2,29,45,2,45,2,31,45,3,45,3,33,45,      47P    149
3,45,4,35,45,4,45,4;                                                  47P    150
406,1,2H72;                                                           49P    151
406,2,0,8HDribbler;                                                   51P    152
314,80.,80.,80.,;                                                     53P    153
314,0.,74.9019607843137,100.,;                                        55P    154
S      1G      3D     56P    154                                        T      1
